<svg xmlns="http://www.w3.org/2000/svg" width="774.878" height="735.072" viewBox="0 0 774.878 735.072">
  <g id="singlebed" transform="translate(-2799.5 194.405)">
    <path id="Path_10" data-name="Path 10" d="M3081,3962.667v538.6h729.878v-538.6Z" transform="translate(-259 -4134.571)" fill="#ba7453" stroke="#000" stroke-linecap="round" stroke-linejoin="round" stroke-width="45"/>
    <path id="Path_11" data-name="Path 11" d="M3206.061,5172.363V5309.03h109.091V5172.363Z" transform="translate(-301.061 -4783.363)" fill="#e2c744" stroke="#000" stroke-linejoin="round" stroke-width="30"/>
    <path id="Path_13" data-name="Path 13" d="M3206.061,5172.363V5309.03h109.091V5172.363Z" transform="translate(153.121 -4783.363)" fill="#e2c744" stroke="#000" stroke-linejoin="round" stroke-width="30"/>
    <path id="Path_14" data-name="Path 14" d="M3333.333,5230.336h345.091v-61H3333.333Z" transform="translate(-319.242 -4773.003)" fill="#e2c744" stroke="#000" stroke-width="25"/>
    <path id="Path_16" data-name="Path 16" d="M3206.043,4650.55,3206,4573.4l582.272-1.4v76.815Z" transform="translate(-310 -4441.061)" fill="#4785dd" stroke="#000" stroke-linecap="round" stroke-linejoin="round" stroke-width="29"/>
    <path id="Path_17" data-name="Path 17" d="M3262,4443.31s103.558-141.448,256.072,0c12.636,11.719-15.428,24.758-24.478,33.5-23.815,23.015-78.619,31.818-101.675,33.5C3321.521,4515.45,3262,4443.31,3262,4443.31Z" transform="translate(-204.484 -4379.293)" fill="#fff" stroke="#000" stroke-width="30"/>
    <path id="Path_15" data-name="Path 15" d="M3115.152,4684.485H3845.03v169.3H3115.152Z" transform="translate(-293.151 -4487.091)" fill="#e2c744" stroke="#000" stroke-width="30"/>
    <path id="Path_19" data-name="Path 19" d="M274.117,479.241a20.814,20.814,0,1,1-14.738-6.1A20.995,20.995,0,0,1,274.117,479.241Z" transform="translate(2843.778 -578.043)"/>
    <path id="Path_20" data-name="Path 20" d="M274.117,479.241a20.814,20.814,0,1,1-14.738-6.1A20.995,20.995,0,0,1,274.117,479.241Z" transform="translate(3155.229 -578.043)"/>
    <path id="Path_21" data-name="Path 21" d="M274.117,479.241a20.814,20.814,0,1,1-14.738-6.1A20.995,20.995,0,0,1,274.117,479.241Z" transform="translate(3010.58 -578.043)"/>
    <path id="Path_22" data-name="Path 22" d="M274.117,479.241a20.814,20.814,0,1,1-14.738-6.1A20.995,20.995,0,0,1,274.117,479.241Z" transform="translate(2698.957 -578.043)"/>
  </g>
</svg>
