<svg xmlns="http://www.w3.org/2000/svg" width="83.2" height="53.93" viewBox="0 0 83.2 53.93">
  <g id="airconditioner" transform="translate(-330.5 -22.986)">
    <path id="Path_36" data-name="Path 36" d="M115.3,352.064a1.4,1.4,0,0,0-1.4,1.4,9.258,9.258,0,0,1-3.934,6.961,1.4,1.4,0,1,0,1.624,2.285,12.057,12.057,0,0,0,5.113-9.247A1.4,1.4,0,0,0,115.3,352.064Z" transform="translate(238.235 -286.556)" fill="#ff7900" stroke="#000" stroke-width="1"/>
    <path id="Path_37" data-name="Path 37" d="M188.685,352.064a1.4,1.4,0,0,0-1.4,1.4v8.1a1.4,1.4,0,1,0,2.8,0v-8.1A1.4,1.4,0,0,0,188.685,352.064Z" transform="translate(172.101 -286.556)" fill="#ff7900" stroke="#000" stroke-width="1"/>
    <path id="Path_38" data-name="Path 38" d="M251.466,352.064a1.4,1.4,0,0,0-1.4,1.4v8.1a1.4,1.4,0,1,0,2.8,0v-8.1A1.4,1.4,0,0,0,251.466,352.064Z" transform="translate(118.645 -286.556)" fill="#ff7900" stroke="#000" stroke-width="1"/>
    <path id="Path_39" data-name="Path 39" d="M369.065,360.427a9.225,9.225,0,0,1-3.934-6.968,1.4,1.4,0,0,0-2.8.006,12.057,12.057,0,0,0,5.113,9.247,1.4,1.4,0,1,0,1.624-2.285Z" transform="translate(22.383 -286.556)" fill="#ff7900" stroke="#000" stroke-width="1"/>
    <path id="Path_40" data-name="Path 40" d="M310.028,352.064a1.4,1.4,0,0,0-1.4,1.4v8.1a1.4,1.4,0,1,0,2.8,0v-8.1A1.4,1.4,0,0,0,310.028,352.064Z" transform="translate(68.781 -286.556)" fill="#ff7900" stroke="#000" stroke-width="1"/>
    <g id="XMLID_39_" transform="translate(332 24.486)">
      <path id="XMLID_43_" d="M72.976,9.388H7.224A6.99,6.99,0,0,0,0,16.118V37.839a6.99,6.99,0,0,0,7.224,6.73H72.976a6.99,6.99,0,0,0,7.224-6.73V16.118A6.99,6.99,0,0,0,72.976,9.388ZM6.442,18.633a3.306,3.306,0,0,1,3.416-3.182,3.306,3.306,0,0,1,3.417,3.182,3.306,3.306,0,0,1-3.417,3.183A3.306,3.306,0,0,1,6.442,18.633ZM66.927,33.9H13.275a2.5,2.5,0,1,1,0-4.981H66.927a2.5,2.5,0,1,1,0,4.981Z" transform="translate(0 -9.388)" fill="#ff7900" stroke="#0d0d0d" stroke-width="3"/>
    </g>
  </g>
</svg>
