<svg id="Capa_1" data-name="Capa 1" xmlns="http://www.w3.org/2000/svg" viewBox="0 0 491.66 389.05"><defs><style>.cls-1,.cls-2{fill:none;}.cls-2,.cls-3{stroke:#000;stroke-miterlimit:10;stroke-width:13px;}.cls-3{fill:#ba7453;}</style></defs><title>airconditioning</title><path d="M492.11,106.16a15,15,0,0,1,2.28,18.27l-116,195.2a15,15,0,0,1-12.89,7.31H338.23c1.09,3.18,2.29,6.44,3.54,9.79a216.76,216.76,0,0,1,6.89,20.62,89.4,89.4,0,0,1,3.16,23,15,15,0,0,1-30,0A60.69,60.69,0,0,0,319.65,365c-1.5-5.69-3.69-11.56-6-17.78-2.42-6.52-4.92-13.26-6.78-20.25H260.74c1.09,3.18,2.29,6.44,3.54,9.79,2.47,6.64,5,13.49,6.89,20.62a89.4,89.4,0,0,1,3.16,23,15,15,0,0,1-30,0A60.69,60.69,0,0,0,242.16,365c-1.5-5.68-3.68-11.56-6-17.78-2.42-6.52-4.92-13.26-6.78-20.25H183.25c1.09,3.18,2.29,6.44,3.54,9.79a216.76,216.76,0,0,1,6.89,20.62,89.4,89.4,0,0,1,3.16,23,15,15,0,0,1-30,0,60.69,60.69,0,0,0-2.17-15.39c-1.5-5.68-3.68-11.56-6-17.79-2.42-6.51-4.92-13.24-6.78-20.24H137.5a15,15,0,0,1-12.89-7.33l-116-195.2a15,15,0,0,1,2.28-18.27c132.67-132.89,348-133.06,480.83-.39l.39.39ZM357,296.94,462.5,119.32c-119-110.43-303.06-110.43-422.08,0L146,296.94h2.87a94.14,94.14,0,0,1,2.88-16.41,215.53,215.53,0,0,1,6.89-20.61c2.31-6.23,4.5-12.1,6-17.79a55.35,55.35,0,0,0,0-30.78c-1.49-5.68-3.68-11.56-6-17.78-.07-.19-.12-.38-.18-.57H145.23a6.39,6.39,0,0,1-4.52-10.91l27.51-27.51a6.39,6.39,0,0,1,9,0l27.51,27.51A6.39,6.39,0,0,1,200.21,193h-9.87c1.21,3.51,2.35,7.09,3.31,10.73a85.35,85.35,0,0,1,0,46c-1.88,7.12-4.43,14-6.89,20.62-2.32,6.22-4.5,12.1-6,17.78a67.45,67.45,0,0,0-1.73,8.78H226.4a95,95,0,0,1,2.88-16.4,216.67,216.67,0,0,1,6.89-20.62c2.31-6.23,4.5-12.1,6-17.79a55.35,55.35,0,0,0,0-30.78c-1.49-5.68-3.68-11.56-6-17.78-.07-.19-.12-.38-.18-.57H224a6.39,6.39,0,0,1-4.49-10.86L247,154.6a6.39,6.39,0,0,1,9,0l27.49,27.51A6.39,6.39,0,0,1,279,193H267.87c1.21,3.51,2.35,7.09,3.31,10.73a85.35,85.35,0,0,1,0,46c-1.88,7.12-4.43,14-6.89,20.62-2.32,6.22-4.5,12.1-6,17.78a67.45,67.45,0,0,0-1.73,8.78h47.33a94,94,0,0,1,2.88-16.4,216.67,216.67,0,0,1,6.89-20.62c2.31-6.22,4.5-12.1,6-17.79a55.32,55.32,0,0,0,0-30.77c-1.49-5.69-3.68-11.57-6-17.79-.07-.19-.12-.38-.18-.57H302.76a6.39,6.39,0,0,1-4.52-10.91l27.51-27.51a6.39,6.39,0,0,1,9,0l27.51,27.51A6.39,6.39,0,0,1,357.74,193H345.36c1.21,3.51,2.35,7.09,3.31,10.73a85.35,85.35,0,0,1,0,46c-1.88,7.13-4.43,14-6.9,20.62-2.31,6.22-4.5,12.1-6,17.79A68.7,68.7,0,0,0,334,296.9Z" transform="translate(-6.5 -6.33)"/><path class="cls-1" d="M492.11,106.16c-132.67-132.89-348-133.06-480.83-.39l-.39.39a15,15,0,0,0-2.28,18.27l116,195.2a15,15,0,0,0,12.89,7.31h14.39c1.86,7,4.36,13.73,6.78,20.24,2.32,6.23,4.5,12.11,6,17.79a60.69,60.69,0,0,1,2.17,15.39,15,15,0,0,0,30,0,89.4,89.4,0,0,0-3.16-23,216.76,216.76,0,0,0-6.89-20.62c-1.25-3.35-2.45-6.61-3.54-9.79h46.13c1.86,7,4.36,13.73,6.78,20.25,2.32,6.22,4.5,12.1,6,17.78a60.69,60.69,0,0,1,2.17,15.39,15,15,0,0,0,30,0,89.4,89.4,0,0,0-3.16-23,215.73,215.73,0,0,0-6.89-20.62c-1.25-3.35-2.45-6.61-3.54-9.79h46.13c1.86,7,4.36,13.73,6.78,20.25,2.31,6.22,4.5,12.09,6,17.78a60.69,60.69,0,0,1,2.17,15.39,15,15,0,0,0,30,0h0a89.4,89.4,0,0,0-3.16-23,216.76,216.76,0,0,0-6.89-20.62c-1.25-3.35-2.45-6.61-3.54-9.79H365.5a15,15,0,0,0,12.89-7.33l116-195.2A15,15,0,0,0,492.11,106.16Z" transform="translate(-6.5 -6.33)"/><path class="cls-2" d="M334,296.94a68.7,68.7,0,0,1,1.74-8.77c1.49-5.69,3.68-11.57,6-17.79,2.47-6.63,5-13.49,6.9-20.62a85.35,85.35,0,0,0,0-46q-1.5-5.46-3.31-10.73h12.42a6.39,6.39,0,0,0,4.52-10.91L334.8,154.61a6.39,6.39,0,0,0-9,0l-27.51,27.51A6.39,6.39,0,0,0,302.81,193H313.5c.06.19.11.38.18.57,2.31,6.22,4.5,12.1,6,17.79a55.32,55.32,0,0,1,0,30.77c-1.49,5.69-3.68,11.57-6,17.79-2.47,6.64-5,13.5-6.89,20.62a94,94,0,0,0-2.88,16.4H256.56a67.45,67.45,0,0,1,1.73-8.78c1.5-5.68,3.68-11.56,6-17.78,2.46-6.64,5-13.5,6.89-20.62a85.35,85.35,0,0,0,0-46q-1.5-5.46-3.31-10.73H279a6.39,6.39,0,0,0,4.48-10.95L256,154.6a6.39,6.39,0,0,0-9,0L219.5,182.11A6.39,6.39,0,0,0,224,193h12c.06.19.11.38.18.57,2.31,6.22,4.5,12.1,6,17.78a55.35,55.35,0,0,1,0,30.78c-1.49,5.69-3.68,11.56-6,17.79-2.47,6.64-5,13.5-6.89,20.62a94.81,94.81,0,0,0-2.91,16.38H179.07a67.45,67.45,0,0,1,1.73-8.78c1.5-5.68,3.68-11.56,6-17.78,2.46-6.64,5-13.5,6.89-20.62a85.35,85.35,0,0,0,0-46q-1.5-5.46-3.31-10.73h9.87a6.39,6.39,0,0,0,4.52-10.91l-27.51-27.51a6.39,6.39,0,0,0-9,0l-27.51,27.51A6.39,6.39,0,0,0,145.27,193H158.5c.06.19.11.38.18.57,2.31,6.22,4.5,12.1,6,17.78a55.35,55.35,0,0,1,0,30.78c-1.49,5.69-3.68,11.56-6,17.79-2.47,6.63-5,13.49-6.89,20.61a94.75,94.75,0,0,0-2.88,16.38H146L40.5,119.32c119-110.43,303.06-110.43,422.08,0L357,296.94Z" transform="translate(-6.5 -6.33)"/><path class="cls-3" d="M481.91,109.53,367.9,308H343.13a79.18,79.18,0,0,1,1.88-9.8c1.61-6.36,4-12.93,6.48-19.88,2.67-7.4,5.4-15.07,7.46-23a98.65,98.65,0,0,0,0-51.39q-1.62-6.1-3.58-12h13.42a7,7,0,0,0,6.91-7.14,7.26,7.26,0,0,0-2-5.05L344,149a6.74,6.74,0,0,0-9.72,0l-29.72,30.74a7.31,7.31,0,0,0,0,10.09,6.78,6.78,0,0,0,4.89,2.1h11.55c.06.21.12.42.19.63,2.5,7,4.87,13.52,6.49,19.88a63.92,63.92,0,0,1,0,34.38c-1.61,6.35-4,12.92-6.49,19.87-2.66,7.42-5.4,15.08-7.44,23A108.07,108.07,0,0,0,310.58,308H259.42a79.31,79.31,0,0,1,1.87-9.81c1.62-6.34,4-12.91,6.48-19.86,2.66-7.42,5.41-15.09,7.45-23a98.65,98.65,0,0,0,0-51.39q-1.62-6.1-3.58-12h12.05a7,7,0,0,0,6.91-7.13,7.28,7.28,0,0,0-2.07-5.1l-29.72-30.74a6.75,6.75,0,0,0-9.73,0l-29.69,30.74a7.31,7.31,0,0,0,0,10.09,6.82,6.82,0,0,0,4.89,2.1h13c.07.21.12.42.2.63,2.49,6.95,4.86,13.52,6.48,19.87a63.92,63.92,0,0,1,0,34.38c-1.61,6.36-4,12.92-6.48,19.88-2.67,7.42-5.4,15.08-7.45,23a109.75,109.75,0,0,0-3.14,18.3H175.71a75.77,75.77,0,0,1,1.87-9.81c1.62-6.35,4-12.92,6.48-19.87,2.65-7.41,5.4-15.08,7.44-23a98.44,98.44,0,0,0,0-51.39q-1.62-6.1-3.58-12h10.67a7,7,0,0,0,6.91-7.14,7.26,7.26,0,0,0-2-5.05L173.75,149a6.74,6.74,0,0,0-9.72,0l-29.72,30.74a7.31,7.31,0,0,0,0,10.09,6.78,6.78,0,0,0,4.89,2.1h14.29c.07.21.12.42.2.63,2.49,7,4.86,13.52,6.48,19.87a64,64,0,0,1,0,34.39c-1.61,6.35-4,12.91-6.48,19.87-2.67,7.41-5.4,15.07-7.45,23a109.69,109.69,0,0,0-3.11,18.3H140L26,109.53c128.59-123.37,327.41-123.37,456,0Z" transform="translate(-6.5 -6.33)"/></svg>