<svg xmlns="http://www.w3.org/2000/svg" width="61" height="71" viewBox="0 0 61 71">
  <path id="building" d="M56.446,63.75H53.857V3.188A3.148,3.148,0,0,0,50.75,0H7.25A3.148,3.148,0,0,0,4.143,3.188V63.75H1.554A1.574,1.574,0,0,0,0,65.344V68H58V65.344A1.574,1.574,0,0,0,56.446,63.75ZM16.571,10.094A1.574,1.574,0,0,1,18.125,8.5H23.3a1.574,1.574,0,0,1,1.554,1.594v5.313A1.574,1.574,0,0,1,23.3,17H18.125a1.574,1.574,0,0,1-1.554-1.594Zm0,12.75a1.574,1.574,0,0,1,1.554-1.594H23.3a1.574,1.574,0,0,1,1.554,1.594v5.313A1.574,1.574,0,0,1,23.3,29.75H18.125a1.574,1.574,0,0,1-1.554-1.594ZM23.3,42.5H18.125a1.574,1.574,0,0,1-1.554-1.594V35.594A1.574,1.574,0,0,1,18.125,34H23.3a1.574,1.574,0,0,1,1.554,1.594v5.312A1.574,1.574,0,0,1,23.3,42.5Zm9.839,21.25H24.857V52.594A1.574,1.574,0,0,1,26.411,51h5.179a1.574,1.574,0,0,1,1.554,1.594Zm8.286-22.844A1.574,1.574,0,0,1,39.875,42.5H34.7a1.574,1.574,0,0,1-1.554-1.594V35.594A1.574,1.574,0,0,1,34.7,34h5.179a1.574,1.574,0,0,1,1.554,1.594Zm0-12.75a1.574,1.574,0,0,1-1.554,1.594H34.7a1.574,1.574,0,0,1-1.554-1.594V22.844A1.574,1.574,0,0,1,34.7,21.25h5.179a1.574,1.574,0,0,1,1.554,1.594Zm0-12.75A1.574,1.574,0,0,1,39.875,17H34.7a1.574,1.574,0,0,1-1.554-1.594V10.094A1.574,1.574,0,0,1,34.7,8.5h5.179a1.574,1.574,0,0,1,1.554,1.594Z" transform="translate(1.5 1.5)" fill="#ff7900" stroke="#000" stroke-width="3"/>
</svg>
