<svg xmlns="http://www.w3.org/2000/svg" width="75" height="54" viewBox="0 0 75 54">
  <g id="cigaratte" transform="translate(18.5 40.5)">
    <path id="Path_16" data-name="Path 16" d="M2,44H56v9H2Zm66.6,0H74v9H68.6Zm-9,0H65v9H59.6Zm3.06-24.81a9.241,9.241,0,0,0,3.6-7.14C66.26,6.5,60.86,2,54.2,2V6.5c3.672,0,6.66,2.49,6.66,5.55S57.872,17.6,54.2,17.6v4.5c8.064,0,14.4,5.49,14.4,12.21V41H74V34.28c0-6.66-4.608-12.42-11.34-15.09ZM52.508,26.6H47c-3.672,0-6.66-2.94-6.66-6s2.988-5.25,6.66-5.25v-4.5c-6.66,0-12.06,4.5-12.06,10.05S40.34,30.95,47,30.95h5.508c3.78,0,7.092,2.22,7.092,6.15V41H65V36.08C65,30.65,59.24,26.6,52.508,26.6Z" transform="translate(-19 -41)" fill="#ff7900" stroke="#000" stroke-width="3"/>
  </g>
</svg>
