<svg id="Capa_1" data-name="Capa 1" xmlns="http://www.w3.org/2000/svg" viewBox="0 0 188.73 179.17"><defs><style>.cls-1{fill:#ba7453;}</style></defs><title>cup</title><path class="cls-1" d="M144.17,80l-2.55,56.11c-.59,14.17-11.74,25.35-25.28,25.33H43.12c-13.51,0-24.65-11.11-25.28-25.26L15.27,80Z" transform="translate(0 0.12)"/><path d="M164.24,94.92a24.5,24.5,0,0,1,0,49H148a35.46,35.46,0,0,1-19.81,23.13h26.42a6,6,0,0,1,0,12H6a6,6,0,0,1,0-12H31.58a35.38,35.38,0,0,1-21-30.71L7.91,80.45a6,6,0,0,1,5.71-6.27H145.91a6,6,0,0,1,6,6c0,.1,0,.19,0,.29l-.69,14.47Zm16.87,24.48c0-9.08-6.49-16.44-14.5-16.44H150.82l-1.38,32.89h17.17C174.62,135.85,181.11,128.49,181.11,119.4Zm-39.49,16.76L144.17,80H15.27l2.55,56.11c.59,14.18,11.75,25.35,25.3,25.33h73.24C129.89,161.47,141,150.32,141.62,136.16Z" transform="translate(0 0.12)"/><path d="M65.05,64.33c2.12,1.69,4.84.74,6.09-2.11h0c1.25-2.85.55-6.53-1.56-8.22h0a14.91,14.91,0,0,1-4.69-10,18.86,18.86,0,0,1,2.36-12.12l0-.08c.49-.76,1-1.51,1.48-2.25,4.11-6.38,8.36-13,9.58-22.56.46-3.26-1.13-6.39-3.54-7s-4.74,1.53-5.19,4.79l0,.22c-.79,6.28-3.91,11.11-7.52,16.7L60.6,24a34.08,34.08,0,0,0-4.45,21.91C56.92,53.53,60.19,60.29,65.05,64.33Z" transform="translate(0 0.12)"/><path d="M86.45,50.78a31.63,31.63,0,0,0,7.37,13.16c1.94,2,4.72,1.5,6.2-1.13a7.5,7.5,0,0,0-.83-8.41h0a19.34,19.34,0,0,1-4.42-8c-1.73-6-.1-12,5.46-20.07A43.14,43.14,0,0,0,107.51,6.9c.38-3.3-1.29-6.38-3.72-6.9S99.08,1.75,98.7,5.05a28.66,28.66,0,0,1-5,13.1C90.8,22.37,82,35.15,86.45,50.78Z" transform="translate(0 0.12)"/></svg>