<svg xmlns="http://www.w3.org/2000/svg" width="61" height="72.39" viewBox="0 0 61 72.39">
  <g id="heating" transform="translate(104.5 -57.95)">
    <path id="Path_2" data-name="Path 2" d="M26.9,15.7a1.361,1.361,0,0,0,2.054,1.782c.212-.243,5.121-6.019,1.4-10.693-2.065-2.6-.539-4.109-.209-4.391A1.361,1.361,0,1,0,28.437.281c-1.426,1.136-3.308,4.31-.217,8.2C30.538,11.4,26.93,15.661,26.9,15.7Z" transform="translate(-122.602 57.97)" fill="#ff7900"/>
    <path id="Path_3" data-name="Path 3" d="M72.4,15.7a1.361,1.361,0,0,0,2.054,1.782c.212-.243,5.121-6.019,1.4-10.693-2.062-2.6-.523-4.109-.207-4.391A1.361,1.361,0,1,0,73.937.281c-1.426,1.136-3.308,4.31-.217,8.2C76.038,11.4,72.432,15.661,72.4,15.7Z" transform="translate(-156.414 57.97)" fill="#ff7900"/>
    <path id="Path_4" data-name="Path 4" d="M117.9,15.7a1.361,1.361,0,0,0,2.054,1.782c.212-.243,5.121-6.019,1.4-10.693-2.065-2.6-.539-4.109-.209-4.391a1.361,1.361,0,1,0-1.706-2.12c-1.426,1.136-3.308,4.31-.217,8.2C121.536,11.4,117.93,15.661,117.9,15.7Z" transform="translate(-190.145 57.97)" fill="#ff7900"/>
    <path id="Path_5" data-name="Path 5" d="M163.4,15.7a1.361,1.361,0,0,0,2.054,1.782c.212-.243,5.121-6.019,1.4-10.693-2.065-2.6-.539-4.109-.209-4.391a1.361,1.361,0,1,0-1.706-2.12c-1.426,1.136-3.308,4.31-.217,8.2C167.036,11.4,163.432,15.661,163.4,15.7Z" transform="translate(-223.876 57.97)" fill="#ff7900"/>
    <path id="Path_6" data-name="Path 6" d="M4.082,135.694a4.08,4.08,0,0,0,4.082-4.082h0V91.862a4.082,4.082,0,1,0-8.165,0v39.751a4.082,4.082,0,0,0,4.082,4.08Z" transform="translate(-103 -6.853)" fill="#ff7900" stroke="#000" stroke-miterlimit="10" stroke-width="3"/>
    <path id="Path_7" data-name="Path 7" d="M35.53,91.632v39.751a4.082,4.082,0,1,0,8.165,0V91.632a4.082,4.082,0,1,0-8.165,0Z" transform="translate(-129.346 -6.684)" fill="#ff7900" stroke="#000" stroke-miterlimit="10" stroke-width="3"/>
    <path id="Path_8" data-name="Path 8" d="M75.152,135.243a4.082,4.082,0,0,0,4.082-4.082h0V91.412a4.082,4.082,0,1,0-8.165,0v39.751a4.08,4.08,0,0,0,4.082,4.08Z" transform="translate(-155.7 -6.521)" fill="#ff7900" stroke="#000" stroke-miterlimit="10" stroke-width="3"/>
    <path id="Path_9" data-name="Path 9" d="M110.682,135.023a4.085,4.085,0,0,0,4.082-4.082h0V91.192a4.082,4.082,0,0,0-8.165,0v39.749A4.082,4.082,0,0,0,110.682,135.023Z" transform="translate(-182.046 -6.359)" fill="#ff7900" stroke="#000" stroke-miterlimit="10" stroke-width="3"/>
    <path id="Path_10" data-name="Path 10" d="M146.212,134.8a4.082,4.082,0,0,0,4.082-4.082h0V90.962a4.082,4.082,0,0,0-8.165,0v39.751a4.085,4.085,0,0,0,4.082,4.088Z" transform="translate(-208.392 -6.189)" fill="#ff7900" stroke="#000" stroke-miterlimit="10" stroke-width="3"/>
    <path id="Path_11" data-name="Path 11" d="M177.638,90.742v39.751a4.082,4.082,0,1,0,8.165,0V104h.625c1.848,0,3.337-2.337,3.337-5.216s-1.5-5.216-3.344-5.216h-.625V90.742a4.082,4.082,0,0,0-8.165,0Z" transform="translate(-234.765 -6.027)" fill="#ff7900" stroke="#000" stroke-miterlimit="10" stroke-width="3"/>
  </g>
</svg>
