<svg xmlns="http://www.w3.org/2000/svg" width="40.424" height="30.818" viewBox="0 0 40.424 30.818">
  <path id="iconcontact" d="M36.192,14.432v-1.6l-4.8,3.2-4.8-3.2v1.6l4.8,3.2Zm1.6-8.005H5.773a3.2,3.2,0,0,0-3.2,3.2V32.043a3.2,3.2,0,0,0,3.2,3.2h32.02a3.188,3.188,0,0,0,3.186-3.2L41,9.629a3.2,3.2,0,0,0-3.2-3.2Zm-22.414,4.8a4.8,4.8,0,1,1-4.8,4.8,4.807,4.807,0,0,1,4.8-4.8Zm9.606,19.212H5.773v-1.6c0-3.2,6.4-4.963,9.606-4.963s9.606,1.761,9.606,4.963Zm12.808-9.606H24.985V11.23H37.793Z" transform="translate(-1.571 -5.427)" fill="none" stroke="#fbfbfb" stroke-width="2"/>
</svg>
