<svg xmlns="http://www.w3.org/2000/svg" width="36.75" height="29.304" viewBox="0 0 36.75 29.304">
  <g id="iconbed" transform="translate(-1.25 -4.625)">
    <path id="Path_41" data-name="Path 41" d="M35.309,14.625h-.031a1.7,1.7,0,0,0-1.691,1.691.172.172,0,0,1-.171.171H5.834a.172.172,0,0,1-.171-.171,1.7,1.7,0,0,0-1.691-1.691H3.941A1.7,1.7,0,0,0,2.25,16.316V30.309A1.7,1.7,0,0,0,3.941,32h.031a1.7,1.7,0,0,0,1.691-1.691v-.481a.311.311,0,0,1,.31-.31h27.3a.311.311,0,0,1,.31.31v.481A1.7,1.7,0,0,0,35.278,32h.031A1.7,1.7,0,0,0,37,30.309V16.316A1.7,1.7,0,0,0,35.309,14.625Z" transform="translate(0 0.929)" fill="#fff" stroke="#5a6c72" stroke-width="2"/>
    <path id="Path_42" data-name="Path 42" d="M5.964,16.019H7.71a.311.311,0,0,0,.31-.31V14.7a1.245,1.245,0,0,1,1.241-1.241h7.563A1.245,1.245,0,0,1,18.065,14.7v1.008a.311.311,0,0,0,.31.31h1.862a.311.311,0,0,0,.31-.31V14.7a1.245,1.245,0,0,1,1.241-1.241h7.563A1.245,1.245,0,0,1,30.592,14.7v1.008a.311.311,0,0,0,.31.31h1.745a.622.622,0,0,0,.621-.621V8.107a2.489,2.489,0,0,0-2.482-2.482H7.826A2.489,2.489,0,0,0,5.344,8.107V15.4A.622.622,0,0,0,5.964,16.019Z" transform="translate(0.319 0)" fill="#fff" stroke="#5a6c72" stroke-width="2"/>
  </g>
</svg>
