<svg id="Capa_1" data-name="Capa 1" xmlns="http://www.w3.org/2000/svg" viewBox="0 0 440.79 328.38"><defs><style>.cls-1{fill:#ba7453;}.cls-2{fill:#4785dd;}.cls-3{fill:#fff;}.cls-4{fill:#f9bd6e;}</style></defs><title>kingbed</title><path class="cls-1" d="M426,90.67V236.94h-10.4V227.6a17.31,17.31,0,0,0-17.29-17.29H387a116.61,116.61,0,0,0,26.4-19.83,7.5,7.5,0,0,0,0-10.61,117.36,117.36,0,0,0-165.76,0,7.5,7.5,0,0,0,0,10.61,116.83,116.83,0,0,0,26.4,19.83H167.29a117.67,117.67,0,0,0,26.32-19.83,7.5,7.5,0,0,0,0-10.61,117.21,117.21,0,0,0-165.76,0,7.5,7.5,0,0,0,0,10.61,117.67,117.67,0,0,0,26.32,19.83H43A17.31,17.31,0,0,0,25.66,227.6v9.34H15.25V90.67A16.9,16.9,0,0,1,32.13,73.79h377A16.9,16.9,0,0,1,426,90.67Zm-41.9,32.51a7.51,7.51,0,1,0-2.2,5.3A7.53,7.53,0,0,0,384.14,123.18Zm-104,0a7.49,7.49,0,1,0-2.19,5.3A7.56,7.56,0,0,0,280.14,123.18Zm-104,0a7.51,7.51,0,1,0-2.2,5.3A7.53,7.53,0,0,0,176.15,123.18Zm-104,0a7.51,7.51,0,1,0-2.2,5.3A7.57,7.57,0,0,0,72.16,123.18Z" transform="translate(-0.25 -58.79)"/><path class="cls-2" d="M400.64,227.6v9.34h-360V227.6A2.29,2.29,0,0,1,43,225.31h355.4A2.3,2.3,0,0,1,400.64,227.6Z" transform="translate(-0.25 -58.79)"/><path class="cls-3" d="M110.73,160.54a101.45,101.45,0,0,1,66.56,24.64,102.25,102.25,0,0,1-133.12,0A101.45,101.45,0,0,1,110.73,160.54Z" transform="translate(-0.25 -58.79)"/><path class="cls-3" d="M264,185.18a102.37,102.37,0,0,1,133.1,0A102.37,102.37,0,0,1,264,185.18Z" transform="translate(-0.25 -58.79)"/><rect class="cls-4" x="72.8" y="271.38" width="295.2" height="16.5"/><rect class="cls-4" x="39.51" y="271.38" width="18.29" height="42"/><rect class="cls-4" x="383" y="271.38" width="18.28" height="42"/><rect class="cls-4" x="15" y="193.15" width="410.79" height="63.23"/><path d="M441,90.67v232a7.5,7.5,0,0,1-7.5,7.5h-17v49.5a7.5,7.5,0,0,1-7.5,7.5H375.75a7.5,7.5,0,0,1-7.5-7.5v-18H73.05v18a7.5,7.5,0,0,1-7.5,7.5H32.26a7.5,7.5,0,0,1-7.5-7.5v-49.5h-17a7.5,7.5,0,0,1-7.5-7.5v-232A31.91,31.91,0,0,1,32.13,58.79h377A31.91,31.91,0,0,1,441,90.67Zm-15,224.5V251.94H15.25v63.23Zm0-78.23V90.67a16.9,16.9,0,0,0-16.87-16.88h-377A16.9,16.9,0,0,0,15.25,90.67V236.94H25.66V227.6A17.31,17.31,0,0,1,43,210.31H54.17a117.67,117.67,0,0,1-26.32-19.83,7.5,7.5,0,0,1,0-10.61,117.21,117.21,0,0,1,165.76,0,7.5,7.5,0,0,1,0,10.61,117.67,117.67,0,0,1-26.32,19.83H274.08a116.83,116.83,0,0,1-26.4-19.83,7.5,7.5,0,0,1,0-10.61,117.36,117.36,0,0,1,165.76,0,7.5,7.5,0,0,1,0,10.61A116.61,116.61,0,0,1,387,210.31h11.31a17.31,17.31,0,0,1,17.29,17.29v9.34ZM401.53,372.17v-42H383.25v42Zm-.89-135.23V227.6a2.3,2.3,0,0,0-2.29-2.29H43a2.29,2.29,0,0,0-2.29,2.29v9.34ZM368.25,346.67v-16.5H73.05v16.5Zm28.86-161.49a102.37,102.37,0,0,0-133.1,0A102.37,102.37,0,0,0,397.11,185.18Zm-219.82,0a102.22,102.22,0,0,0-133.12,0,102.25,102.25,0,0,0,133.12,0Zm-119.24,187v-42H39.76v42Z" transform="translate(-0.25 -58.79)"/><path d="M381.94,117.88a7.48,7.48,0,1,1-5.3-2.2A7.53,7.53,0,0,1,381.94,117.88Z" transform="translate(-0.25 -58.79)"/><path d="M278,117.88a7.5,7.5,0,1,1-5.31-2.2A7.56,7.56,0,0,1,278,117.88Z" transform="translate(-0.25 -58.79)"/><path d="M174,117.88a7.48,7.48,0,1,1-5.3-2.2A7.53,7.53,0,0,1,174,117.88Z" transform="translate(-0.25 -58.79)"/><path d="M70,117.88a7.5,7.5,0,1,1-5.31-2.2A7.57,7.57,0,0,1,70,117.88Z" transform="translate(-0.25 -58.79)"/></svg>