<svg xmlns="http://www.w3.org/2000/svg" width="61.5" height="56.5" viewBox="0 0 61.5 56.5">
  <path id="parking" d="M52.232,2.25H6.268A6.02,6.02,0,0,0,0,7.982V50.018A6.02,6.02,0,0,0,6.268,55.75H52.232A6.02,6.02,0,0,0,58.5,50.018V7.982A6.02,6.02,0,0,0,52.232,2.25ZM31.339,36.643H25.071v5.732a2.012,2.012,0,0,1-2.089,1.911H18.8a2.012,2.012,0,0,1-2.089-1.911V15.625A2.012,2.012,0,0,1,18.8,13.714H31.339c6.908,0,12.536,5.147,12.536,11.464S38.247,36.643,31.339,36.643Zm0-15.286H25.071V29h6.268a4.024,4.024,0,0,0,4.179-3.821A4.024,4.024,0,0,0,31.339,21.357Z" transform="translate(1.5 -0.75)" fill="#427ccf" stroke="#000" stroke-width="3"/>
</svg>
