<svg xmlns="http://www.w3.org/2000/svg" width="44.635" height="80.499" viewBox="0 0 44.635 80.499">
  <g id="shampoo" transform="translate(-3.984 -4.51)">
    <path id="Path_30" data-name="Path 30" d="M23.739,16.29a2.747,2.747,0,0,0,2.747-2.747,3.919,3.919,0,0,1,4.094-4.05h4v8.47A10.442,10.442,0,0,0,29.372,21.3h15.9a10.465,10.465,0,0,0-5.184-3.338V9.491h8.582A2.747,2.747,0,1,0,48.838,4H30.483C26.667,4.076,21,6.681,21,13.543a2.744,2.744,0,0,0,2.737,2.747Z" transform="translate(-11.037 1.51)" fill="#ff7900" stroke="#000" stroke-miterlimit="10" stroke-width="2"/>
    <path id="Path_31" data-name="Path 31" d="M92.03,178.5h14.033L103.9,161.32H92.03Z" transform="translate(-63.421 -114.259)" fill="#ff7900" stroke="#000" stroke-miterlimit="10" stroke-width="3"/>
    <path id="Path_32" data-name="Path 32" d="M13.3,85a2.744,2.744,0,0,0-2.718,2.364L4.135,132.435a7.839,7.839,0,0,0,6.25,9.155,7.677,7.677,0,0,0,1.45.137H37.761a7.834,7.834,0,0,0,7.7-9.292l-.733-5.126H24.8a1.922,1.922,0,0,1-1.922-1.922h0V102.727A1.922,1.922,0,0,1,24.8,100.8H40.95l-1.93-13.441A2.744,2.744,0,0,0,36.3,85Z" transform="translate(1.5 -58.218)" fill="#008fe7" stroke="#000" stroke-miterlimit="10" stroke-width="3"/>
  </g>
</svg>
