<?xml version="1.0" encoding="utf-8"?>
<!-- Generator: Adobe Illustrator 24.0.1, SVG Export Plug-In . SVG Version: 6.00 Build 0)  -->
<svg version="1.1" id="Layer_1" xmlns="http://www.w3.org/2000/svg" xmlns:xlink="http://www.w3.org/1999/xlink" x="0px" y="0px"
	 viewBox="0 0 218 223.6" style="enable-background:new 0 0 218 223.6;" xml:space="preserve">
<style type="text/css">
	.st0{fill:#BA7453;stroke:#000000;stroke-width:8;stroke-miterlimit:10;}
	.st1{fill:#427CCF;stroke:#000000;stroke-width:4;stroke-miterlimit:10;}
	.st2{fill:#F9BD6E;stroke:#000000;stroke-width:8;stroke-miterlimit:10;}
	.st3{fill:#FFFFFF;stroke:#000000;stroke-width:8;stroke-miterlimit:10;}
	.st4{fill:#F9BD6E;stroke:#000000;stroke-width:6;stroke-miterlimit:10;}
</style>
<title>singlebed</title>
<path class="st0" d="M50,46.4h127.2c5.7,0,10.3,4.6,10.3,10.2v101.8c0,5.7-4.6,10.2-10.3,10.2H50c-5.7,0-10.3-4.6-10.3-10.2V56.6
	C39.7,51,44.3,46.4,50,46.4z"/>
<path class="st1" d="M55.4,115.6h116.5c0.9,0,1.6,2.8,1.6,6.2v14.6c0,3.4-0.7,6.2-1.6,6.2H55.4c-0.9,0-1.6-2.8-1.6-6.2v-14.6
	C53.8,118.4,54.5,115.6,55.4,115.6z"/>
<path class="st2" d="M53.8,130.6h119.6c7.8,0,14.1,4.9,14.1,11v19.1c0,6.1-6.3,11-14.1,11H53.8c-7.8,0-14.1-4.9-14.1-11v-19.1
	C39.7,135.5,46,130.6,53.8,130.6z"/>
<path class="st3" d="M84.8,98c0,0,30.4-41.2,60.2,2.2C145,100.2,114,138.6,84.8,98z"/>
<rect x="63.6" y="176.1" class="st4" width="104.9" height="14.5"/>
<path id="Path_16-2-2" d="M72.6,60.3c-1.2,1.2-1.4,3.2-0.3,4.6c0.1,0.1,0.1,0.2,0.2,0.3l0,0l0.1,0.1c1.4,1.4,3.5,1.4,4.9,0
	c1.2-1.2,1.4-3.2,0.3-4.6l-0.2-0.3l0,0l-0.1-0.1C76.1,59,74,59,72.6,60.3z"/>
<rect x="49.6" y="172.1" class="st4" width="11.9" height="26.4"/>
<rect x="168.8" y="172.3" class="st4" width="11.9" height="26.3"/>
<path id="Path_16-2-2-2" d="M152.6,60c-1.2,1.2-1.4,3.2-0.3,4.6c0.1,0.1,0.1,0.2,0.2,0.3l0,0l0.1,0.1c1.4,1.4,3.6,1.4,5,0
	c1.2-1.2,1.4-3.2,0.3-4.6c-0.1-0.1-0.2-0.2-0.2-0.3l0,0l-0.1-0.1C156.1,58.6,154,58.6,152.6,60z"/>
<path id="Path_16-2-2-3" d="M112.5,60c-1.2,1.2-1.4,3.2-0.3,4.6c0.1,0.1,0.1,0.2,0.2,0.3l0,0l0.1,0.1c1.4,1.4,3.6,1.4,5,0
	c1.2-1.2,1.4-3.2,0.3-4.6c-0.1-0.1-0.2-0.2-0.2-0.3l0,0l-0.1-0.1C116,58.6,113.9,58.6,112.5,60z"/>
</svg>
