<svg id="Layer_1" data-name="Layer 1" xmlns="http://www.w3.org/2000/svg" viewBox="0 0 214 136.5"><defs><style>.cls-1{fill:#ba7453;}.cls-1,.cls-2,.cls-3{stroke:#000;stroke-miterlimit:10;}.cls-1,.cls-2{stroke-width:5px;}.cls-2{fill:#4785dd;}.cls-3{fill:#f9bd6e;stroke-width:8px;}</style></defs><title>sofa</title><path d="M912,343" transform="translate(-880 -272.5)"/><rect class="cls-1" x="32" y="2.5" width="72" height="72" rx="4.6"/><rect class="cls-1" x="109" y="2.5" width="72" height="72" rx="4.6"/><rect class="cls-2" x="35" y="63.5" width="146" height="13"/><path class="cls-3" d="M917.92,354h137a6,6,0,0,0,6-6V309a6,6,0,0,1,6-6H1084a6,6,0,0,1,6,6V399a6,6,0,0,1-6,6H890a6,6,0,0,1-6-6V309a6,6,0,0,1,6-6h15a6,6,0,0,1,6,5.92l.76,39.16A6,6,0,0,0,917.92,354Z" transform="translate(-880 -272.5)"/><path id="Path_18" data-name="Path 18" d="M943,294a3.26,3.26,0,0,1,.08,4.68l-.08.08a3.67,3.67,0,0,1-5,0,3.26,3.26,0,0,1-.08-4.68L938,294A3.65,3.65,0,0,1,943,294Z" transform="translate(-880 -272.5)"/><path id="Path_18-2" data-name="Path 18" d="M959.16,294.29a3.25,3.25,0,0,1,.08,4.67l-.08.09a3.66,3.66,0,0,1-5,0,3.26,3.26,0,0,1-.09-4.68l.09-.08A3.64,3.64,0,0,1,959.16,294.29Z" transform="translate(-880 -272.5)"/><path id="Path_18-3" data-name="Path 18" d="M943.16,310.29a3.25,3.25,0,0,1,.08,4.67l-.08.09a3.66,3.66,0,0,1-5,0,3.26,3.26,0,0,1-.09-4.68l.09-.08A3.64,3.64,0,0,1,943.16,310.29Z" transform="translate(-880 -272.5)"/><path id="Path_18-4" data-name="Path 18" d="M959.16,310.19a3.25,3.25,0,0,1,.08,4.67l-.08.09a3.66,3.66,0,0,1-5,0,3.26,3.26,0,0,1-.09-4.68l.09-.08A3.64,3.64,0,0,1,959.16,310.19Z" transform="translate(-880 -272.5)"/><path id="Path_18-5" data-name="Path 18" d="M1019,294.12a3.25,3.25,0,0,1,.09,4.67l-.09.09a3.66,3.66,0,0,1-5,0,3.26,3.26,0,0,1-.08-4.68l.08-.08A3.64,3.64,0,0,1,1019,294.12Z" transform="translate(-880 -272.5)"/><path id="Path_18-6" data-name="Path 18" d="M1035.17,294.41a3.26,3.26,0,0,1,.08,4.68l-.08.09a3.69,3.69,0,0,1-5,0,3.26,3.26,0,0,1-.08-4.68l.08-.09A3.65,3.65,0,0,1,1035.17,294.41Z" transform="translate(-880 -272.5)"/><path id="Path_18-7" data-name="Path 18" d="M1019.17,310.41a3.26,3.26,0,0,1,.08,4.68l-.08.09a3.69,3.69,0,0,1-5,0,3.26,3.26,0,0,1-.08-4.68l.08-.09A3.65,3.65,0,0,1,1019.17,310.41Z" transform="translate(-880 -272.5)"/><path id="Path_18-8" data-name="Path 18" d="M1035.17,310.31a3.26,3.26,0,0,1,.08,4.68l-.08.08a3.67,3.67,0,0,1-5,0,3.25,3.25,0,0,1-.08-4.67l.08-.09A3.65,3.65,0,0,1,1035.17,310.31Z" transform="translate(-880 -272.5)"/></svg>