<?xml version="1.0" encoding="utf-8"?>
<!-- Generator: Adobe Illustrator 24.0.1, SVG Export Plug-In . SVG Version: 6.00 Build 0)  -->
<svg version="1.1" id="Layer_1" xmlns="http://www.w3.org/2000/svg" xmlns:xlink="http://www.w3.org/1999/xlink" x="0px" y="0px"
	 viewBox="0 0 249 238" style="enable-background:new 0 0 249 238;" xml:space="preserve">
<style type="text/css">
	.st0{fill:#BA7453;stroke:#000000;stroke-width:8;stroke-miterlimit:10;}
	.st1{fill:#427CCF;stroke:#000000;stroke-width:4;stroke-miterlimit:10;}
	.st2{fill:#F9BD6E;stroke:#000000;stroke-width:8;stroke-miterlimit:10;}
	.st3{fill:#FFFFFF;stroke:#000000;stroke-width:8;stroke-miterlimit:10;}
	.st4{fill:#F9BD6E;stroke:#000000;stroke-width:7;stroke-miterlimit:10;}
</style>
<title>twinbed</title>
<path class="st0" d="M54.1,47.4H230c8.3,0,15,6.1,15,13.6v118.5c0,7.5-6.7,13.6-15,13.6H54.1c-8.3,0-15-6.1-15-13.6V61
	C39.1,53.5,45.8,47.4,54.1,47.4z"/>
<path class="st1" d="M57.9,127.1h169.4c1.3,0,2.3,2.2,2.3,4.8v11.4c0,2.7-1,4.8-2.3,4.8H57.9c-1.3,0-2.3-2.2-2.3-4.8v-11.4
	C55.6,129.3,56.6,127.1,57.9,127.1z"/>
<path class="st2" d="M53.5,140.2h177c8,0,14.5,4.9,14.5,11V178c0,6.1-6.5,11-14.5,11h-177c-8,0-14.5-4.9-14.5-11v-26.8
	C39.1,145.1,45.5,140.2,53.5,140.2z"/>
<path class="st3" d="M68.4,108.6c0,0,35.9-45.2,73.5,0C141.9,108.6,105.2,150.8,68.4,108.6z"/>
<path class="st3" d="M142.3,103.1c0,0,38.7-41.9,73.3,6.6C215.6,109.7,176.2,148.5,142.3,103.1z"/>
<rect x="68.1" y="189" class="st4" width="153.8" height="16.6"/>
<rect x="50.2" y="189" class="st4" width="15.4" height="33.2"/>
<rect x="221.9" y="189" class="st4" width="15.4" height="33.2"/>
<path id="Path_16-2" d="M70.3,65.4c-1.2,1.2-1.4,3.2-0.3,4.6c0,0,0,0,0,0c0.1,0.1,0.1,0.2,0.2,0.3l0,0l0.1,0.1c1.4,1.4,3.5,1.4,5,0
	c1.2-1.2,1.4-3.2,0.3-4.6c0,0,0,0,0,0c-0.1-0.1-0.2-0.2-0.2-0.3l0,0l-0.1-0.1C73.8,64,71.7,64,70.3,65.4z"/>
<path id="Path_16-2-2" d="M110.8,65.4c-1.2,1.2-1.4,3.2-0.3,4.6c0,0,0,0,0,0c0.1,0.1,0.1,0.2,0.2,0.3l0,0l0.1,0.1
	c1.4,1.4,3.5,1.4,4.9,0c1.2-1.2,1.4-3.2,0.3-4.6c-0.1-0.1-0.1-0.2-0.2-0.3l0,0l-0.1-0.1C114.3,64.1,112.2,64.1,110.8,65.4z"/>
<path id="Path_16-2-3" d="M154.9,65.4c-1.4,1.2-1.5,3.2-0.4,4.6c0,0,0,0,0,0c0.1,0.1,0.2,0.2,0.3,0.3l0,0l0.1,0.1
	c1.6,1.4,4,1.4,5.5,0c1.4-1.2,1.5-3.2,0.4-4.6c-0.1-0.1-0.2-0.2-0.3-0.3l0,0l-0.1-0.1C158.9,64.1,156.5,64.1,154.9,65.4z"/>
<path id="Path_16-2-4" d="M201.4,65.4c-1.2,1.2-1.4,3.2-0.3,4.6c0,0,0,0,0,0c0.1,0.1,0.1,0.2,0.2,0.3l0,0l0.1,0.1
	c1.4,1.4,3.5,1.4,4.9,0c1.2-1.2,1.4-3.2,0.3-4.6c-0.1-0.1-0.1-0.2-0.2-0.3l0,0l-0.1-0.1C204.9,64.1,202.8,64.1,201.4,65.4z"/>
</svg>
