<svg xmlns="http://www.w3.org/2000/svg" width="60.098" height="51" viewBox="0 0 60.098 51">
  <g id="wifi" transform="translate(1.05)">
    <path id="Path_12" data-name="Path 12" d="M0,0H58V51H0Z" fill="none"/>
    <path id="Path_13" data-name="Path 13" d="M1,16.9l5.091,5.472a30.83,30.83,0,0,1,45.818,0L57,16.9C41.549.3,16.476.3,1,16.9ZM21.364,38.792,29,47l7.636-8.208A10.263,10.263,0,0,0,21.364,38.792ZM11.182,27.848l5.091,5.472a17.132,17.132,0,0,1,25.455,0l5.091-5.472A24,24,0,0,0,11.182,27.848Z" fill="#ff7900" stroke="#000" stroke-width="3"/>
  </g>
</svg>
