<svg xmlns="http://www.w3.org/2000/svg" width="881.571" height="829" viewBox="0 0 881.571 829">
  <g id="beach" transform="translate(-10269.43 -288.833)">
    <path id="Path_52" data-name="Path 52" d="M1503.405,503.6c-21.6-8.209-158.058,10.364-158.058,10.364H1175.072s-121.989,5.611-151.214,0S872.641,509.1,872.641,509.1c-79.906-20.869-98-5.493-98-5.493l6.294,194.343,831.646-.01V511.277c-.05-2.542-.05-7.674,0-7.674C1612.532,503.5,1503.405,503.6,1503.405,503.6Z" transform="translate(9538.418 316.21)" fill="#fad377"/>
    <path id="Path_1" data-name="Path 1" d="M779.882,504.418l.265-324,837.67-3V503.348Z" transform="translate(9533.183 111.416)" fill="#99dde4"/>
    <path id="Path_2" data-name="Path 2" d="M1618,375.741c-130.188-2.46-265.07-3.983-395.274-4.189-146.216-.232-296.451,1.58-442.662,4.189,1.61,76.673,2.376,145.519,1.554,218.591,278.194-.054,558.184,1.032,836.378.978V526.065Z" transform="translate(9532.998 239.024)" fill="#2fa1be"/>
    <path id="Path_3" data-name="Path 3" d="M1055.813,479.75V458.408l14.678-28.457h6.044l5.181-24.011,6.044-6.225h27.629l19,20.454,5.181,19.564,10.361,12.45v4.447l15.541,14.229L1148.2,475.3l-8.343.4Z" transform="translate(9698.994 255.662)" fill="#d2d3ce"/>
    <path id="Path_4" data-name="Path 4" d="M1089.26,401.767l16.189,23.007,4.533,14.958,10.976,15.58v7.6l16.727,10.426,9.628-2.479-25.9-31.125-5.18-19.564-19-20.454h-11.213Z" transform="translate(9717.146 255.662)" fill="#9e9e9b"/>
    <ellipse id="Ellipse_1" data-name="Ellipse 1" cx="99.971" cy="17.008" rx="99.971" ry="17.008" transform="translate(10592.672 922.588)" fill="#d4bf66"/>
    <ellipse id="Ellipse_2" data-name="Ellipse 2" cx="112.351" cy="25.833" rx="112.351" ry="25.833" transform="translate(10849.794 876.484)" fill="#d4bf66"/>
    <ellipse id="Ellipse_3" data-name="Ellipse 3" cx="63.837" cy="10.565" rx="63.837" ry="10.565" transform="translate(10956.027 956.834)" fill="#d4bf66"/>
    <g id="Group_12" data-name="Group 12" transform="translate(10895.152 505.825)">
      <path id="Path_64" data-name="Path 64" d="M1221.379,413.285a409.857,409.857,0,0,1,41.143,95.141c7.2,25.063,10.246,45.345,15.849,82.609,5.763,38.419,8.965,70.737,10.886,93.987h29.3c-4-31.659-10.726-78.322-21.132-128.778-5.283-25.723-10.726-47.983-22.253-73.376-5.763-12.531-12.807-25.723-15.529-30.669,0,0-6.4-11.872-28.016-47.983h0" transform="translate(-1096.667 -247.242)" fill="#423223"/>
      <path id="Path_6" data-name="Path 6" d="M1225.472,407.7a415.269,415.269,0,0,1,43.332,80.369c15.457,38.29,21.459,69.788,28.709,107.827,6.684,35.074,10.371,65.5,12.519,89.151l6.063-.02c-4.716-39.183-10.225-71.908-14.828-96.358-14.015-74.434-24.324-97.073-28.557-105.8-3.876-7.982-12.846-25.286-23.117-43.659-8.173-14.619-15.313-26.6-20.427-34.993Q1227.319,405.955,1225.472,407.7Z" transform="translate(-1094.208 -247.242)" fill="#32261a"/>
      <path id="Path_65" data-name="Path 65" d="M1265.179,309.016" transform="translate(-1070.348 -309.016)" fill="#62a343" stroke="#62a343" stroke-miterlimit="10" stroke-width="1"/>
      <path id="Path_66" data-name="Path 66" d="M1376.572,489.052s-42.264-81.785-94.134-47.158c0,0,53.47-75.519,94.134-63.977,0,0-57.473-34.462-89.491,28.691v-.33A196.865,196.865,0,0,1,1311.9,342.3c14.088-23.084,19.3-31.216,19.3-31.216s-50.994,13.408-72.927,62.215a114.1,114.1,0,0,0-9.445,36.44,122.226,122.226,0,0,0-36.021-20.281,123.671,123.671,0,0,0-69.32-3.628,206.741,206.741,0,0,1,47.547,18.632,202.279,202.279,0,0,1,44.826,32.978s-76.043,8.9-69.96,90.689c0,0,56.192-72.881,81.167-64.966-29.6,36.49-37.916,86.535-21.772,131.087-.48-2.473-1.121-5.936-1.6-10.223-1.761-20.281,3.842-35.946,7.845-46.169,10.086-26.877,26.735-46,36.661-56.062,1.12-1.484,2.4-2.8,3.522-4.287h0l3.682-4.617c2.562-3.133,5.283-5.936,7.524-9.234a51.3,51.3,0,0,1,5.443-6.76C1288.522,457.063,1335.909,453.436,1376.572,489.052Z" transform="translate(-1143.479 -307.674)" fill="#62a343"/>
      <path id="Ellipse_6" data-name="Ellipse 6" d="M14.912.009A14.856,14.856,0,0,1,29.666,15.16a15.2,15.2,0,0,1-14.9,15.291A14.856,14.856,0,0,1,.009,15.3,15.2,15.2,0,0,1,14.912.009Z" transform="translate(102.277 190.001) rotate(-80.567)" fill="#a45f34"/>
      <path id="Ellipse_7" data-name="Ellipse 7" d="M4.3,0c2.366-.011,4.276,1.558,4.267,3.5s-1.935,3.534-4.3,3.545S-.007,5.494,0,3.548,1.937.014,4.3,0Z" transform="translate(120.515 186.681) rotate(-80.567)" fill="#85624a"/>
      <ellipse id="Ellipse_8" data-name="Ellipse 8" cx="3.522" cy="3.628" rx="3.522" ry="3.628" transform="translate(113.371 180.204)" fill="#85624a"/>
      <path id="Ellipse_9" data-name="Ellipse 9" d="M2.818,0A2.9,2.9,0,0,1,5.6,3.033,2.964,2.964,0,0,1,2.788,6.09,2.9,2.9,0,0,1,0,3.059,2.964,2.964,0,0,1,2.818,0Z" transform="translate(117.456 191.836) rotate(-80.567)" fill="#85624a"/>
      <path id="Ellipse_10" data-name="Ellipse 10" d="M18.92.031C29.242-.1,37.52,7.285,37.409,16.515S28.839,33.331,18.517,33.457-.084,26.2.027,16.973,8.6.157,18.92.031Z" transform="matrix(0.886, -0.465, 0.465, 0.886, 125.639, 162.428)" fill="#a45f34"/>
      <path id="Ellipse_11" data-name="Ellipse 11" d="M4.254.007a4.368,4.368,0,0,1,4.132,4.7A4.631,4.631,0,0,1,4.14,9.51,4.368,4.368,0,0,1,.008,4.81,4.631,4.631,0,0,1,4.254.007Z" transform="matrix(0.886, -0.465, 0.465, 0.886, 149.512, 167.667)" fill="#85624a"/>
      <path id="Ellipse_12" data-name="Ellipse 12" d="M4.407.007a4.107,4.107,0,0,1,4.3,4.043,4.355,4.355,0,0,1-4.4,4.15,4.107,4.107,0,0,1-4.3-4.043A4.355,4.355,0,0,1,4.407.007Z" transform="matrix(0.886, -0.465, 0.465, 0.886, 141.672, 172.695)" fill="#85624a"/>
      <path id="Ellipse_13" data-name="Ellipse 13" d="M3.751.006A3.41,3.41,0,0,1,7.417,3.238,3.616,3.616,0,0,1,3.672,6.56,3.41,3.41,0,0,1,.005,3.329,3.616,3.616,0,0,1,3.751.006Z" transform="matrix(0.886, -0.465, 0.465, 0.886, 149.962, 176.787)" fill="#85624a"/>
    </g>
    <g id="Group_11" data-name="Group 11" transform="translate(10269.999 740.949)">
      <path id="Path_14" data-name="Path 14" d="M788.883,505.183h0a2.5,2.5,0,0,1-2.4-2.473V492.651a2.5,2.5,0,0,1,2.4-2.473h0a2.5,2.5,0,0,1,2.4,2.473V502.71a2.4,2.4,0,0,1-2.315,2.473Z" transform="translate(-731.25 -426.585)" fill="#302f55"/>
      <path id="Path_15" data-name="Path 15" d="M961.683,505.183h0a2.5,2.5,0,0,1-2.4-2.473V492.651a2.5,2.5,0,0,1,2.4-2.473h0a2.5,2.5,0,0,1,2.4,2.473V502.71a2.4,2.4,0,0,1-2.313,2.473Z" transform="translate(-627.412 -426.585)" fill="#302f55"/>
      <g id="Group_4" data-name="Group 4" transform="translate(252.328)">
        <path id="Path_16" data-name="Path 16" d="M934.082,452.978" transform="translate(-894.883 -450.724)" fill="none" stroke="#302f55" stroke-linecap="round" stroke-linejoin="round" stroke-width="1.138"/>
        <path id="Path_17" data-name="Path 17" d="M942.895,484.307c-4.643,11.377-13.448,19.292-22.413,21.436,14.28,6.126,30.688-.709,36.821-15.335,5.968-14.395-.522-31.047-14.5-37.2-.183-.079-.367-.158-.551-.234h0C946.9,461.057,947.537,472.93,942.895,484.307Z" transform="translate(-903.055 -450.724)" fill="#f05c89" stroke="#302f55" stroke-linecap="round" stroke-linejoin="round" stroke-width="1.138"/>
        <path id="Path_18" data-name="Path 18" d="M911.814,469.2c-5.968,14.395.522,31.047,14.5,37.194.182.081.367.158.551.236-4.8-8.08-5.283-19.952-.64-31.329s13.448-19.292,22.413-21.436h0C934.355,447.723,917.936,454.561,911.814,469.2Z" transform="translate(-909.596 -451.611)" fill="#f05c89" stroke="#302f55" stroke-linecap="round" stroke-linejoin="round" stroke-width="1.138"/>
        <path id="Path_19" data-name="Path 19" d="M944.349,484.307c4.643-11.377,4.162-23.249-.64-31.329-8.965,2.308-17.77,10.058-22.413,21.436s-4.162,23.249.64,31.329h0C930.9,503.434,939.546,495.519,944.349,484.307Z" transform="translate(-904.51 -450.724)" fill="#fee77b" stroke="#302f55" stroke-linecap="round" stroke-linejoin="round" stroke-width="1.138"/>
      </g>
      <g id="Group_6" data-name="Group 6" transform="translate(203.475 43.311)">
        <path id="Path_20" data-name="Path 20" d="M991.307,513.1H882.444a3.329,3.329,0,0,1-3.362-3.3q0-.082,0-.163v-28.2a3.339,3.339,0,0,1,3.2-3.463q.079,0,.158,0H991.307a3.327,3.327,0,0,1,3.362,3.3q0,.082,0,.163v28.2a3.336,3.336,0,0,1-3.2,3.463C991.417,513.1,991.361,513.1,991.307,513.1Z" transform="translate(-879.081 -477.814)" fill="#008cb1" stroke="#302f55" stroke-miterlimit="10" stroke-width="1.138"/>
        <path id="Path_21" data-name="Path 21" d="M944.782,477.878v4.452a5.83,5.83,0,0,0,5.715,5.936h4.851" transform="translate(-839.6 -477.878)" fill="none" stroke="#302f55" stroke-miterlimit="10" stroke-width="1.138"/>
        <path id="Path_22" data-name="Path 22" d="M879.182,488.6h4.483a5.825,5.825,0,0,0,5.763-5.887v-4.831" transform="translate(-879.021 -477.878)" fill="none" stroke="#302f55" stroke-miterlimit="10" stroke-width="1.138"/>
        <path id="Path_23" data-name="Path 23" d="M889.648,503.366v-4.452a5.829,5.829,0,0,0-5.715-5.936h-4.851" transform="translate(-879.081 -468.08)" fill="none" stroke="#302f55" stroke-miterlimit="10" stroke-width="1.138"/>
        <path id="Path_24" data-name="Path 24" d="M955.028,492.978h-4.483a5.824,5.824,0,0,0-5.763,5.887V503.7" transform="translate(-839.601 -468.08)" fill="none" stroke="#302f55" stroke-miterlimit="10" stroke-width="1.138"/>
        <g id="Group_5" data-name="Group 5" transform="translate(20.653 11.374)">
          <path id="Path_25" data-name="Path 25" d="M938.1,494.882H907.2a4.37,4.37,0,0,1-4.322-4.416v-.036h0a4.372,4.372,0,0,1,4.287-4.452h31.093a4.37,4.37,0,0,1,4.322,4.416v.036h0A4.616,4.616,0,0,1,938.1,494.882Z" transform="translate(-885.432 -483.996)" fill="none" stroke="#302f55" stroke-miterlimit="10" stroke-width="1.138"/>
          <path id="Path_26" data-name="Path 26" d="M937.684,497.741h0a3.226,3.226,0,0,1-3.2-3.133v-6.6a3.124,3.124,0,0,1,3.112-3.136l.09,0h0a3.225,3.225,0,0,1,3.2,3.133v6.6A3.226,3.226,0,0,1,937.684,497.741Z" transform="translate(-866.443 -484.711)" fill="#fcfaf7" stroke="#302f55" stroke-miterlimit="10" stroke-width="1.138"/>
          <path id="Path_27" data-name="Path 27" d="M895.184,497.641h0a3.226,3.226,0,0,1-3.2-3.133v-6.6a3.124,3.124,0,0,1,3.112-3.136l.09,0h0a3.225,3.225,0,0,1,3.2,3.133v6.6A3.226,3.226,0,0,1,895.184,497.641Z" transform="translate(-891.982 -484.776)" fill="#fcfaf7" stroke="#302f55" stroke-miterlimit="10" stroke-width="1.138"/>
        </g>
      </g>
      <g id="Group_8" data-name="Group 8" transform="translate(98.775 43.311)">
        <path id="Path_28" data-name="Path 28" d="M925.907,513.1H817.044a3.329,3.329,0,0,1-3.362-3.3q0-.082,0-.163v-28.2a3.339,3.339,0,0,1,3.2-3.463q.079,0,.159,0H925.907a3.327,3.327,0,0,1,3.362,3.3q0,.082,0,.163v28.2a3.336,3.336,0,0,1-3.2,3.463C926.017,513.1,925.961,513.1,925.907,513.1Z" transform="translate(-813.681 -477.814)" fill="#efebef" stroke="#302f55" stroke-miterlimit="10" stroke-width="1.138"/>
        <path id="Path_29" data-name="Path 29" d="M879.382,477.878v4.452a5.83,5.83,0,0,0,5.715,5.936h4.851" transform="translate(-774.201 -477.878)" fill="none" stroke="#302f55" stroke-miterlimit="10" stroke-width="1.138"/>
        <path id="Path_30" data-name="Path 30" d="M813.782,488.6h4.482a5.826,5.826,0,0,0,5.763-5.887v-4.831" transform="translate(-813.621 -477.878)" fill="none" stroke="#302f55" stroke-miterlimit="10" stroke-width="1.138"/>
        <path id="Path_31" data-name="Path 31" d="M824.248,503.366v-4.452a5.829,5.829,0,0,0-5.715-5.936h-4.851" transform="translate(-813.681 -468.08)" fill="none" stroke="#302f55" stroke-miterlimit="10" stroke-width="1.138"/>
        <path id="Path_32" data-name="Path 32" d="M889.728,492.978h-4.483a5.824,5.824,0,0,0-5.763,5.887V503.7" transform="translate(-774.141 -468.08)" fill="none" stroke="#302f55" stroke-miterlimit="10" stroke-width="1.138"/>
        <g id="Group_7" data-name="Group 7" transform="translate(20.653 11.374)">
          <path id="Path_33" data-name="Path 33" d="M872.762,494.882H841.7a4.37,4.37,0,0,1-4.322-4.416v-.036h0a4.372,4.372,0,0,1,4.287-4.452h31.093a4.37,4.37,0,0,1,4.323,4.416v.036h0a4.372,4.372,0,0,1-4.287,4.452Z" transform="translate(-820.092 -483.996)" fill="none" stroke="#302f55" stroke-miterlimit="10" stroke-width="1.138"/>
          <path id="Path_34" data-name="Path 34" d="M872.284,497.741h0a3.226,3.226,0,0,1-3.2-3.133v-6.6a3.123,3.123,0,0,1,3.112-3.136l.09,0h0a3.225,3.225,0,0,1,3.2,3.133v6.6A3.226,3.226,0,0,1,872.284,497.741Z" transform="translate(-801.043 -484.711)" fill="#f05c89" stroke="#302f55" stroke-miterlimit="10" stroke-width="1.138"/>
          <path id="Path_35" data-name="Path 35" d="M829.784,497.641h0a3.226,3.226,0,0,1-3.2-3.133v-6.6a3.124,3.124,0,0,1,3.112-3.136l.09,0h0a3.225,3.225,0,0,1,3.2,3.133v6.6A3.226,3.226,0,0,1,829.784,497.641Z" transform="translate(-826.582 -484.776)" fill="#f05c89" stroke="#302f55" stroke-miterlimit="10" stroke-width="1.138"/>
        </g>
      </g>
      <g id="Group_10" data-name="Group 10" transform="translate(152.727 13.301)">
        <path id="Path_36" data-name="Path 36" d="M943.277,489.788H850.264a2.912,2.912,0,0,1-2.882-2.942v-24.1a2.913,2.913,0,0,1,2.856-2.968h93.039a2.91,2.91,0,0,1,2.882,2.942v24.1a2.916,2.916,0,0,1-2.859,2.968Z" transform="translate(-847.382 -459.613)" fill="#fee77b" stroke="#302f55" stroke-miterlimit="10" stroke-width="1.138"/>
        <path id="Path_37" data-name="Path 37" d="M903.482,459.678v3.792a4.922,4.922,0,0,0,4.9,4.947h4.065" transform="translate(-813.67 -459.678)" fill="none" stroke="#302f55" stroke-miterlimit="10" stroke-width="1.138"/>
        <path id="Path_38" data-name="Path 38" d="M847.382,468.847h3.842a5.033,5.033,0,0,0,4.963-4.947v-4.122" transform="translate(-847.382 -459.613)" fill="none" stroke="#302f55" stroke-miterlimit="10" stroke-width="1.138"/>
        <path id="Path_39" data-name="Path 39" d="M856.447,481.418v-3.792a4.923,4.923,0,0,0-4.9-4.948l-.062,0h-4" transform="translate(-847.322 -451.243)" fill="none" stroke="#302f55" stroke-miterlimit="10" stroke-width="1.138"/>
        <path id="Path_40" data-name="Path 40" d="M912.287,472.578h-3.842a5.032,5.032,0,0,0-4.963,4.947v4.122" transform="translate(-813.67 -451.307)" fill="none" stroke="#302f55" stroke-miterlimit="10" stroke-width="1.138"/>
        <line id="Line_2" data-name="Line 2" x2="98.777" transform="translate(0 15.004)" fill="none" stroke="#302f55" stroke-miterlimit="10" stroke-width="1.138"/>
        <g id="Group_9" data-name="Group 9" transform="translate(17.61 9.398)">
          <path id="Path_41" data-name="Path 41" d="M897.879,474.263H871.464a3.675,3.675,0,0,1-3.682-3.671v-.122h0a3.681,3.681,0,0,1,3.562-3.793q.06,0,.12,0h26.415a3.674,3.674,0,0,1,3.682,3.669v.124h0A3.9,3.9,0,0,1,897.879,474.263Z" transform="translate(-852.734 -464.535)" fill="#fee77b" stroke="#302f55" stroke-miterlimit="10" stroke-width="1.138"/>
          <path id="Path_42" data-name="Path 42" d="M897.5,476.755h0A2.738,2.738,0,0,1,894.782,474v-5.821a2.847,2.847,0,0,1,2.722-2.8h0a2.735,2.735,0,0,1,2.722,2.754v5.821A2.972,2.972,0,0,1,897.5,476.755Z" transform="translate(-836.509 -465.378)" fill="#fcfaf7" stroke="#302f55" stroke-miterlimit="10" stroke-width="1.138"/>
          <path id="Path_43" data-name="Path 43" d="M861.1,476.591h0a2.738,2.738,0,0,1-2.721-2.754v-5.656a2.847,2.847,0,0,1,2.721-2.8h0a2.735,2.735,0,0,1,2.722,2.754v5.821a2.609,2.609,0,0,1-2.573,2.643C861.2,476.594,861.153,476.594,861.1,476.591Z" transform="translate(-858.382 -465.378)" fill="#fcfaf7" stroke="#302f55" stroke-miterlimit="10" stroke-width="1.138"/>
        </g>
      </g>
      <ellipse id="Ellipse_1-2" data-name="Ellipse 1" cx="33.459" cy="33.967" rx="33.459" ry="33.967" transform="translate(77.484 204.572)" fill="#302f55" stroke="#302f55" stroke-miterlimit="10" stroke-width="0.427"/>
      <ellipse id="Ellipse_2-2" data-name="Ellipse 2" cx="13.608" cy="13.686" rx="13.608" ry="13.686" transform="translate(97.336 224.854)" fill="#efebef"/>
      <path id="Path_44" data-name="Path 44" d="M1121.454,510.478h-354.6s-20.972,81.29-3.842,146.256h53.631l7.844-15.335h72.2l7.845,15.335h264.151C1168.36,656.9,1173.163,568.519,1121.454,510.478Z" transform="translate(-749.401 -413.413)" fill="#fcfaf7" stroke="#302f55" stroke-miterlimit="10" stroke-width="1.138"/>
      <path id="Path_45" data-name="Path 45" d="M1131.015,517.746H758.482c.078-10.281,8.235-18.55,18.217-18.468h336.066c9.982-.1,18.153,8.152,18.25,18.433v.035Z" transform="translate(-748.076 -420.681)" fill="#fff" stroke="#302f55" stroke-miterlimit="10" stroke-width="1.138"/>
      <path id="Path_46" data-name="Path 46" d="M805.951,615.122H767.369a11.789,11.789,0,0,1-11.687-11.872h0a11.787,11.787,0,0,1,11.687-11.872h38.582a11.788,11.788,0,0,1,11.687,11.872h0A11.892,11.892,0,0,1,805.951,615.122Z" transform="translate(-749.759 -360.918)" fill="#fff" stroke="#302f55" stroke-miterlimit="10" stroke-width="1.138"/>
      <path id="Path_47" data-name="Path 47" d="M1032.068,615.122h-34.1a11.79,11.79,0,0,1-11.687-11.872h0a11.788,11.788,0,0,1,11.687-11.872h34.1a11.787,11.787,0,0,1,11.687,11.872h0A11.789,11.789,0,0,1,1032.068,615.122Z" transform="translate(-611.187 -360.918)" fill="#fff" stroke="#302f55" stroke-miterlimit="10" stroke-width="1.138"/>
      <ellipse id="Ellipse_3-2" data-name="Ellipse 3" cx="33.459" cy="33.967" rx="33.459" ry="33.967" transform="translate(307.216 204.572)" fill="#302f55" stroke="#302f55" stroke-miterlimit="10" stroke-width="0.427"/>
      <path id="Path_48" data-name="Path 48" d="M1082.3,494.97H781.323a1.463,1.463,0,0,1-1.441-1.484h0v-.824a1.463,1.463,0,0,1,1.441-1.484H1082.3a1.463,1.463,0,0,1,1.441,1.484h0v.824A1.357,1.357,0,0,1,1082.3,494.97Z" transform="translate(-735.216 -425.936)" fill="#302f55"/>
      <path id="Path_49" data-name="Path 49" d="M997.108,606.006H852.065a4.552,4.552,0,0,1-4.483-4.617v-.495a4.551,4.551,0,0,1,4.483-4.617H997.108a4.551,4.551,0,0,1,4.483,4.617v.495a4.365,4.365,0,0,1-4.079,4.617Q997.309,606.016,997.108,606.006Z" transform="translate(-694.534 -357.738)" fill="#fff" stroke="#302f55" stroke-miterlimit="10" stroke-width="1.138"/>
      <path id="Path_50" data-name="Path 50" d="M850.307,560.642h-35.22a8.912,8.912,0,0,1-8.805-9.016V523.047a8.915,8.915,0,0,1,8.754-9.069h35.271a8.911,8.911,0,0,1,8.8,9.016v28.579a8.821,8.821,0,0,1-8.551,9.069Q850.434,560.644,850.307,560.642Z" transform="translate(-719.352 -411.142)" fill="#302f55" stroke="#302f55" stroke-miterlimit="10" stroke-width="0.881"/>
      <path id="Path_51" data-name="Path 51" d="M847.881,556.554H820.666a6.934,6.934,0,0,1-6.884-6.985v-22.2a6.942,6.942,0,0,1,6.782-7.09h27.318a6.933,6.933,0,0,1,6.884,6.985v22.2a6.942,6.942,0,0,1-6.781,7.09Z" transform="translate(-714.845 -407.054)" fill="#008cb1" stroke="#302f55" stroke-miterlimit="10" stroke-width="0.881"/>
      <path id="Path_52-2" data-name="Path 52" d="M889.807,560.642h-35.22a8.912,8.912,0,0,1-8.8-9.016V523.047a8.915,8.915,0,0,1,8.754-9.069h35.271a8.911,8.911,0,0,1,8.805,9.016v28.579a8.821,8.821,0,0,1-8.55,9.069Q889.935,560.644,889.807,560.642Z" transform="translate(-695.616 -411.142)" fill="#302f55" stroke="#302f55" stroke-miterlimit="10" stroke-width="0.881"/>
      <path id="Path_53" data-name="Path 53" d="M887.382,556.554H860.166a6.934,6.934,0,0,1-6.884-6.985v-22.2a6.942,6.942,0,0,1,6.782-7.09h27.318a6.933,6.933,0,0,1,6.884,6.985v22.2A7.042,7.042,0,0,1,887.382,556.554Z" transform="translate(-691.109 -407.054)" fill="#008cb1" stroke="#302f55" stroke-miterlimit="10" stroke-width="0.881"/>
      <path id="Path_54" data-name="Path 54" d="M929.307,560.642h-35.22a8.911,8.911,0,0,1-8.805-9.016V523.047a8.915,8.915,0,0,1,8.754-9.069h35.271a8.911,8.911,0,0,1,8.8,9.016v28.579A9.021,9.021,0,0,1,929.307,560.642Z" transform="translate(-671.88 -411.142)" fill="#302f55" stroke="#302f55" stroke-miterlimit="10" stroke-width="0.881"/>
      <path id="Path_55" data-name="Path 55" d="M926.782,556.554H899.566a6.934,6.934,0,0,1-6.884-6.985v-22.2a6.942,6.942,0,0,1,6.782-7.09h27.318a6.933,6.933,0,0,1,6.884,6.985v22.2a6.941,6.941,0,0,1-6.781,7.09Z" transform="translate(-667.433 -407.054)" fill="#008cb1" stroke="#302f55" stroke-miterlimit="10" stroke-width="0.881"/>
      <path id="Path_56" data-name="Path 56" d="M1020.1,560.706H936.369a11.789,11.789,0,0,1-11.687-11.872V525.75a11.787,11.787,0,0,1,11.687-11.872h72.041a3.285,3.285,0,0,1,3.042,2.308l11.687,40.4a3.21,3.21,0,0,1-2.065,3.984A2.963,2.963,0,0,1,1020.1,560.706Z" transform="translate(-648.204 -411.207)" fill="#302f55" stroke="#302f55" stroke-miterlimit="10" stroke-width="0.881"/>
      <path id="Path_57" data-name="Path 57" d="M1012.484,556.619H947.647a9.086,9.086,0,0,1-8.965-9.2v-18a9.088,9.088,0,0,1,8.936-9.234h55.741a2.411,2.411,0,0,1,2.4,1.814l9.125,31.329a2.627,2.627,0,0,1-1.795,3.209A2.528,2.528,0,0,1,1012.484,556.619Z" transform="translate(-639.791 -407.119)" fill="#008cb1" stroke="#302f55" stroke-miterlimit="10" stroke-width="0.881"/>
      <path id="Path_58" data-name="Path 58" d="M1016.706,560.706h-17.45a4.679,4.679,0,0,1-4.483-3.3l-12.007-37.265a4.829,4.829,0,0,1,3.01-6.036,4.568,4.568,0,0,1,1.473-.229h2.882a183.609,183.609,0,0,1,13.128,18.962A211.255,211.255,0,0,1,1016.706,560.706Z" transform="translate(-613.435 -411.207)" fill="#302f55" stroke="#302f55" stroke-miterlimit="10" stroke-width="0.881"/>
      <path id="Path_59" data-name="Path 59" d="M1013.088,556.619h-9.606a3.616,3.616,0,0,1-3.522-2.638l-11.206-28.856a3.775,3.775,0,0,1,2.278-4.75,3.55,3.55,0,0,1,1.244-.2h2.241s5.123,7.585,8.645,13.851A147.932,147.932,0,0,1,1013.088,556.619Z" transform="translate(-609.817 -407.119)" fill="#008cb1" stroke="#302f55" stroke-miterlimit="10" stroke-width="0.682"/>
      <ellipse id="Ellipse_4" data-name="Ellipse 4" cx="13.608" cy="13.686" rx="13.608" ry="13.686" transform="translate(327.067 224.854)" fill="#efebef"/>
      <path id="Path_60" data-name="Path 60" d="M1160.536,586.1l-10.406-10.058a72.373,72.373,0,0,0-50.109-20.446h-344.2a3.955,3.955,0,0,1-3.842-3.957h0a3.954,3.954,0,0,1,3.842-3.957h346.118a71.371,71.371,0,0,1,50.109,20.446l13.287,12.861a3.369,3.369,0,0,1,.64,4.122h0a3.381,3.381,0,0,1-4.587,1.606A3.439,3.439,0,0,1,1160.536,586.1Z" transform="translate(-751.982 -389.274)" fill="#fff" stroke="#302f55" stroke-miterlimit="10" stroke-width="1.138"/>
      <path id="Path_61" data-name="Path 61" d="M1013.966,601.021h0a6.9,6.9,0,0,1-6.884-6.915V574.8a6.9,6.9,0,0,1,6.873-6.925h.011a6.9,6.9,0,0,1,6.884,6.914v19.3A7.005,7.005,0,0,1,1013.966,601.021Z" transform="translate(-598.688 -376.167)" fill="#61758b" stroke="#302f55" stroke-miterlimit="10" stroke-width="1.138"/>
      <path id="Path_62" data-name="Path 62" d="M1015.064,601.151h0a3.675,3.675,0,0,1-3.682-3.67v-26.01a3.781,3.781,0,0,1,3.682-3.793h0a3.674,3.674,0,0,1,3.682,3.669v26.011A3.782,3.782,0,0,1,1015.064,601.151Z" transform="translate(-596.104 -376.296)" fill="#fee77b" stroke="#302f55" stroke-miterlimit="10" stroke-width="1.138"/>
      <line id="Line_3" data-name="Line 3" y2="57.546" transform="translate(276.478 180.663)" fill="none" stroke="#302f55" stroke-miterlimit="10" stroke-width="1.138"/>
      <line id="Line_4" data-name="Line 4" x2="14.088" transform="translate(285.924 184.291)" fill="none" stroke="#302f55" stroke-miterlimit="10" stroke-width="1.138"/>
      <line id="Line_5" data-name="Line 5" x2="32.819" transform="translate(30.097 174.563)" fill="none" stroke="#302f55" stroke-miterlimit="10" stroke-width="1.138"/>
      <line id="Line_6" data-name="Line 6" x2="32.819" transform="translate(30.097 180.334)" fill="none" stroke="#302f55" stroke-miterlimit="10" stroke-width="1.138"/>
      <line id="Line_7" data-name="Line 7" x2="32.819" transform="translate(30.097 186.105)" fill="none" stroke="#302f55" stroke-miterlimit="10" stroke-width="1.138"/>
      <line id="Line_8" data-name="Line 8" x2="32.819" transform="translate(30.097 191.876)" fill="none" stroke="#302f55" stroke-miterlimit="10" stroke-width="1.138"/>
      <line id="Line_9" data-name="Line 9" x2="32.819" transform="translate(30.097 197.647)" fill="none" stroke="#302f55" stroke-miterlimit="10" stroke-width="1.138"/>
      <g id="Group_3" data-name="Group 3" transform="translate(490.577 96.636)">
        <path id="Path_1-2" data-name="Path 1" d="M1129.836,589.061h0a.693.693,0,0,1-.937-.294l-.011-.023-38.749-74.729a.7.7,0,0,1,.293-.938l.022-.012h0a.693.693,0,0,1,.937.3l.011.021,38.749,74.729A.726.726,0,0,1,1129.836,589.061Z" transform="translate(-1039.402 -508.422)" fill="#302f55"/>
        <g id="Group_2" data-name="Group 2">
          <path id="Path_2-2" data-name="Path 2" d="M1084.221,552.061c-.32,3.957-6.4,7.09-13.608,8.08-7.044.825-12.647-1.649-12.167-5.606" transform="translate(-1058.417 -483.066)" fill="#f05c89" stroke="#302f55" stroke-linecap="round" stroke-linejoin="round" stroke-width="1.138"/>
          <path id="Path_3-2" data-name="Path 3" d="M1122.723,540.361c.961,3.627-8.805,11.377-22.253,16.489s-24.814,6.431-25.935,2.8" transform="translate(-1048.732 -490.658)" fill="#fcfaf7" stroke="#302f55" stroke-linecap="round" stroke-linejoin="round" stroke-width="1.138"/>
          <path id="Path_4-2" data-name="Path 4" d="M1131.735,530.883c3.362,1.979,9.605-1.154,14.408-6.431,4.8-5.441,5.763-11.212,2.4-13.191" transform="translate(-1014.359 -509.541)" fill="#fcfaf7" stroke="#302f55" stroke-linecap="round" stroke-linejoin="round" stroke-width="1.138"/>
          <path id="Path_5" data-name="Path 5" d="M1104.635,551.522c2.241,2.968,13.928-.495,25.935-8.574s19.531-16.819,17.45-19.787" transform="translate(-1030.644 -501.819)" fill="#f05c89" stroke="#302f55" stroke-linecap="round" stroke-linejoin="round" stroke-width="1.138"/>
          <g id="Group_1" data-name="Group 1" transform="translate(0.029)">
            <path id="Path_6-2" data-name="Path 6" d="M1114.787,519.261c-24.334,12.7-45.146,32.483-56.352,56.557,6.564,1.154,15.529.165,25.775-2.473C1087.251,541.851,1114.627,519.426,1114.787,519.261Z" transform="translate(-1058.435 -504.35)" fill="#fcfaf7" stroke="#302f55" stroke-linecap="round" stroke-linejoin="round" stroke-width="1.138"/>
            <path id="Path_7" data-name="Path 7" d="M1171.379,511.938c-25.615-4.782-53.471.66-77.644,13.191.32,0,33.779-9.564,60.835,6.431C1162.574,524.8,1168.5,518.039,1171.379,511.938Z" transform="translate(-1037.223 -510.218)" fill="#f05c89" stroke="#302f55" stroke-linecap="round" stroke-linejoin="round" stroke-width="1.138"/>
            <path id="Path_8" data-name="Path 8" d="M1074.535,552.061" transform="translate(-1048.76 -483.066)" fill="#fff" stroke="#302f55" stroke-linecap="round" stroke-linejoin="round" stroke-width="1.138"/>
            <path id="Path_9" data-name="Path 9" d="M1131.735,523.161" transform="translate(-1014.388 -501.819)" fill="#fff" stroke="#302f55" stroke-linecap="round" stroke-linejoin="round" stroke-width="1.138"/>
            <path id="Path_10" data-name="Path 10" d="M1093.8,519.261h0Z" transform="translate(-1037.283 -504.35)" fill="#fff" stroke="#302f55" stroke-linecap="round" stroke-linejoin="round" stroke-width="1.138"/>
            <path id="Path_11" data-name="Path 11" d="M1093.635,519.261" transform="translate(-1037.283 -504.35)" fill="#fff" stroke="#302f55" stroke-linecap="round" stroke-linejoin="round" stroke-width="1.138"/>
            <path id="Path_12" data-name="Path 12" d="M1120.421,549.436l-15.209-30.175h0c-.16.165-27.7,22.59-30.577,54.084h0c14.568-3.792,31.7-10.883,48.188-19.292Z" transform="translate(-1048.7 -504.35)" fill="#f05c89" stroke="#302f55" stroke-linecap="round" stroke-linejoin="round" stroke-width="1.138"/>
            <path id="Path_13" data-name="Path 13" d="M1093.735,520.367h0l15.209,30.175,2.241,4.617c16.329-8.574,31.858-18.468,43.225-28.2h0C1127.514,510.8,1093.895,520.367,1093.735,520.367Z" transform="translate(-1037.223 -505.456)" fill="#fcfaf7" stroke="#302f55" stroke-linecap="round" stroke-linejoin="round" stroke-width="1.138"/>
          </g>
        </g>
      </g>
    </g>
    <path id="Path_17-2" data-name="Path 17" d="M1029.748,450.8c-1.465,12.248-7.851,22.329-15.913,26.9,15.359,1.9,29.346-9.27,31.389-25.063,1.947-15.523-8.695-29.733-23.766-31.738-.2-.026-.394-.049-.592-.071h0C1027.467,427.308,1031.215,438.555,1029.748,450.8Z" transform="translate(9673.769 269.366)" fill="#f05c89" stroke="#302f55" stroke-linecap="round" stroke-linejoin="round" stroke-width="1.138"/>
    <path id="Path_18-2" data-name="Path 18" d="M998.61,446.007c-1.947,15.524,8.695,29.733,23.766,31.738.2.026.394.049.592.071-6.754-6.431-10.348-17.721-8.882-29.97s7.851-22.329,15.913-26.9h0C1014.637,419.031,1000.64,430.207,998.61,446.007Z" transform="translate(9664.481 269.299)" fill="#f05c89" stroke="#302f55" stroke-linecap="round" stroke-linejoin="round" stroke-width="1.138"/>
    <path id="Path_19-2" data-name="Path 19" d="M1033.2,450.8c1.466-12.248-2.128-23.54-8.882-29.97-8.019,4.731-14.446,14.654-15.913,26.9s2.128,23.54,8.882,29.97h0C1025.31,472.974,1031.541,462.937,1033.2,450.8Z" transform="translate(9670.313 269.366)" fill="#fee77b" stroke="#302f55" stroke-linecap="round" stroke-linejoin="round" stroke-width="1.138"/>
    <path id="Path_7-2" data-name="Path 7" d="M988.561,443.4h88.694V463.06Z" transform="translate(9658.581 284.011)" fill="#2fa1be"/>
    <path id="Path_8-2" data-name="Path 8" d="M988.561,467.305h80.476l-2.8-23.9H988.561" transform="translate(9658.581 284.011)" fill="#2fa1be"/>
    <path id="Path_9-2" data-name="Path 9" d="M793.169,470.98l84.229-104.7,35.22-11.219,76.043-106.576,71.59-27.218,134.419,89.052,2.576,55.962,91.3,101.1Z" transform="translate(9541.167 143.169)" fill="#d4d5d0"/>
    <path id="Path_10-2" data-name="Path 10" d="M1002.321,261.747l49.246,58.026v40.967l70.912,101.095h57.836l-91.3-101.095-2.577-55.96-81.25-53.828-31.906-21.138Z" transform="translate(9649.399 148.712)" fill="#b1b3a5"/>
    <path id="Path_11-2" data-name="Path 11" d="M936.5,256.579l18.378-18.8,34.765,34.141Z" transform="translate(9627.298 150.583)" fill="#c7c4ba"/>
    <path id="Path_12-2" data-name="Path 12" d="M918.538,302.412,909.6,331.357l47.684,18.675,40.663-23.81Z" transform="translate(9611.13 192.523)" fill="#c7c4ba"/>
    <path id="Path_13-2" data-name="Path 13" d="M833.848,387.341l65.507-37.208-18.028-23.488Z" transform="translate(9565.611 208.248)" fill="#c7c4ba"/>
    <path id="Path_14-2" data-name="Path 14" d="M996.222,333l32.084,42.345-4.131-58.493Z" transform="translate(9663.184 201.893)" fill="#c7c4ba"/>
    <line id="Line_1" data-name="Line 1" transform="translate(11145.518 489.589)" fill="none"/>
    <path id="Path_15-2" data-name="Path 15" d="M0,308.209" transform="translate(11144.444 809.624)" fill="none"/>
  </g>
</svg>
