<svg xmlns="http://www.w3.org/2000/svg" xmlns:xlink="http://www.w3.org/1999/xlink" width="370.614" height="696.094" viewBox="0 0 370.614 696.094">
  <defs>
    <linearGradient id="linear-gradient" x1="0.5" x2="0.5" y2="1" gradientUnits="objectBoundingBox">
      <stop offset="0" stop-color="#ffc478"/>
      <stop offset="0.056" stop-color="#fdbd6b"/>
      <stop offset="0.235" stop-color="#f9ac49"/>
      <stop offset="0.419" stop-color="#f69f2f"/>
      <stop offset="0.605" stop-color="#f4951c"/>
      <stop offset="0.796" stop-color="#f38f10"/>
      <stop offset="1" stop-color="#f38e0d"/>
    </linearGradient>
    <linearGradient id="linear-gradient-2" x1="0.5" x2="0.5" y2="1" gradientUnits="objectBoundingBox">
      <stop offset="0" stop-color="#818181"/>
      <stop offset="0.075" stop-color="#7b7a7d"/>
      <stop offset="0.371" stop-color="#686872"/>
      <stop offset="0.675" stop-color="#5d5c6b"/>
      <stop offset="1" stop-color="#5a5969"/>
    </linearGradient>
    <linearGradient id="linear-gradient-6" x1="0.501" y1="0.928" x2="0.371" y2="-0.011" gradientUnits="objectBoundingBox">
      <stop offset="0" stop-color="#fff" stop-opacity="0"/>
      <stop offset="1" stop-color="#b2958a"/>
    </linearGradient>
    <linearGradient id="linear-gradient-7" x1="0" y1="0.5" x2="1" y2="0.5" xlink:href="#linear-gradient-6"/>
    <linearGradient id="linear-gradient-8" x1="0" y1="0.5" x2="1" y2="0.5" xlink:href="#linear-gradient-6"/>
  </defs>
  <g id="woman" transform="translate(-232.693 -136.137)">
    <g id="Group_15" data-name="Group 15" transform="translate(445.293 493.936)">
      <path id="Path_61" data-name="Path 61" d="M443.444,482.9c1.37-6.54-3.388-40.489-9.506-71.705-6.144-31.335-8.856-54.806-17.645-74.163s-23.014-27.987-38.1-30.4-47.231-2.776-55.882,3.568-4.62,121.5-1.515,143.61c1.981,14.109,33.3,44.028,51.834,47.9,19.66,4.114,51.062-.83,57.859-1.827S442.31,488.322,443.444,482.9Z" transform="translate(-285.666 -174.544)" fill="#ee4e24"/>
      <g id="Group_13" data-name="Group 13" transform="translate(19.555 310.546)">
        <path id="Path_62" data-name="Path 62" d="M334.248,379.483c.538,6.916-3.773,12.675-9.631,12.863s-11.042-5.262-11.582-12.178,3.773-12.672,9.631-12.863S333.71,372.567,334.248,379.483Z" transform="translate(-312.989 -367.3)" fill="#454e5b"/>
        <path id="Path_63" data-name="Path 63" d="M327.48,377.161c.379,4.857-1.92,8.882-5.129,8.983s-6.121-3.75-6.5-8.607,1.917-8.879,5.129-8.983S327.1,372.3,327.48,377.161Z" transform="translate(-307.653 -364.933)" fill="#282f39"/>
        <path id="Path_64" data-name="Path 64" d="M323.9,375.345c.254,3.27-1.05,5.967-2.912,6.028s-3.579-2.541-3.837-5.811,1.049-5.967,2.914-6.028S323.642,372.075,323.9,375.345Z" transform="translate(-305.183 -363.079)" fill="#121821"/>
      </g>
      <path id="Path_65" data-name="Path 65" d="M316.589,315.026c-8.3,7.026-11.984,23.373-8.749,56.824,2.007,20.765,10.067,74.316,15.072,103s15.3,25.663,24.194,27.25,57.874,1.992,72.162-.335c13.618-2.215,12.851-23.569,10.981-42.059-2.839-28.062-12.025-65.628-15.312-87.74-8.645-58.137-17.66-57.787-27.212-64.159S326.069,307,316.589,315.026Z" transform="translate(-305.376 -174.499)" fill="url(#linear-gradient)"/>
      <path id="Path_66" data-name="Path 66" d="M342.608,466.8c14.459,0,36.95-1.278,49.911-2.527a128.4,128.4,0,0,0-.862-17.518c-1.625-16.058-5.652-36.351-9.206-54.257-2.374-11.958-4.614-23.254-5.973-32.4-5.589-37.6-10.617-43.857-11.172-44.45-.246-.208-1.347-.87-2.151-1.353-.425-.255-.853-.515-1.281-.775a57.252,57.252,0,0,0-7.537-.393c-14.213,0-30.9,2.761-37.742,4.979-1.076,3.166-3.053,12.612-.775,36.178,1.891,19.565,9.735,72.017,14.832,101.233a50.731,50.731,0,0,0,2.8,10.732c.176.029,1.6.263,2.139.359C336.054,466.659,337.942,466.8,342.608,466.8Z" transform="translate(-290.066 -159.193)" fill="#ee4e24"/>
      <g id="Group_14" data-name="Group 14" transform="translate(127.976 310.546)">
        <path id="Path_67" data-name="Path 67" d="M371.748,379.483c.538,6.916-3.773,12.675-9.631,12.863s-11.044-5.262-11.582-12.178,3.773-12.672,9.631-12.863S371.207,372.567,371.748,379.483Z" transform="translate(-350.489 -367.3)" fill="#454e5b"/>
        <path id="Path_68" data-name="Path 68" d="M364.977,377.161c.379,4.857-1.917,8.882-5.126,8.983s-6.124-3.75-6.5-8.607,1.917-8.879,5.126-8.983S364.6,372.3,364.977,377.161Z" transform="translate(-345.153 -364.933)" fill="#282f39"/>
        <path id="Path_69" data-name="Path 69" d="M361.4,375.345c.254,3.27-1.049,5.967-2.912,6.028s-3.582-2.541-3.837-5.811,1.049-5.967,2.911-6.028S361.142,372.075,361.4,375.345Z" transform="translate(-342.683 -363.079)" fill="#121821"/>
      </g>
      <path id="Path_70" data-name="Path 70" d="M306.333,262.388c-.46,2.958.651,10.1,1.529,14.945A5.647,5.647,0,0,0,313.287,282h0c2.582-.1,4.169-2.484,3.467-5.219-1.119-4.346-2.417-10.174-1.819-11.819.989-2.721,7.61-4.155,7.61-4.155s-6.424.541-10.139.413A12.628,12.628,0,0,0,306.333,262.388Z" transform="translate(-306.226 -258.163)" fill="#494646"/>
      <path id="Path_71" data-name="Path 71" d="M306.309,264.116c4.062-1,27.279-1.966,31.355-.332,2.744,1.1,4.38,8.032,5.155,12.447a5.846,5.846,0,0,0,4.2,4.585l1.376.338a3.841,3.841,0,0,0,4.805-4.614c-.969-5.875-2.637-14.15-4.551-15.656-3.024-2.382-38.132.243-40.544.445S306.309,264.116,306.309,264.116Z" transform="translate(-306.202 -259.89)" fill="#646663"/>
      <path id="Path_72" data-name="Path 72" d="M353.445,532.722h0a3.5,3.5,0,0,1-3.267-2.909L307.81,268.762a2.36,2.36,0,0,1,2.29-2.926h0a3.5,3.5,0,0,1,3.27,2.909L355.735,529.8A2.359,2.359,0,0,1,353.445,532.722Z" transform="translate(-303.311 -248.646)" fill="#494646"/>
      <path id="Path_73" data-name="Path 73" d="M365.211,535.123h0a3.5,3.5,0,0,1-3.27-2.909L319.856,266.239a2.36,2.36,0,0,1,2.29-2.926h0a3.5,3.5,0,0,1,3.27,2.909L367.5,532.2A2.359,2.359,0,0,1,365.211,535.123Z" transform="translate(-280.529 -253.418)" fill="#646663"/>
      <path id="Path_74" data-name="Path 74" d="M340.069,392.841l16.4-.622a4.083,4.083,0,0,0,3.886-4.672l-4.961-33.784a4.087,4.087,0,0,0-4.2-3.487l-16.4.622a4.082,4.082,0,0,0-3.886,4.672l4.961,33.784A4.085,4.085,0,0,0,340.069,392.841Z" transform="translate(-259.62 -88.957)" fill="url(#linear-gradient-2)"/>
      <path id="Path_75" data-name="Path 75" d="M327.519,392.841l16.4-.622a4.081,4.081,0,0,0,3.886-4.672l-4.961-33.784a4.085,4.085,0,0,0-4.2-3.487l-16.4.622a4.084,4.084,0,0,0-3.886,4.672l4.964,33.784A4.082,4.082,0,0,0,327.519,392.841Z" transform="translate(-283.355 -88.957)" fill="url(#linear-gradient-2)"/>
      <path id="Path_76" data-name="Path 76" d="M334.741,359.182l16.4-.622a4.081,4.081,0,0,0,3.886-4.672L350.065,320.1a4.085,4.085,0,0,0-4.2-3.487l-16.4.622a4.083,4.083,0,0,0-3.886,4.672l4.964,33.784A4.082,4.082,0,0,0,334.741,359.182Z" transform="translate(-269.697 -152.612)" fill="url(#linear-gradient-2)"/>
      <path id="Path_77" data-name="Path 77" d="M322.192,359.182l16.4-.622a4.083,4.083,0,0,0,3.886-4.672L337.513,320.1a4.082,4.082,0,0,0-4.192-3.487l-16.4.622a4.081,4.081,0,0,0-3.886,4.672L318,355.7A4.085,4.085,0,0,0,322.192,359.182Z" transform="translate(-293.43 -152.612)" fill="url(#linear-gradient-2)"/>
    </g>
    <path id="Path_78" data-name="Path 78" d="M318.427,167.229,310.612,137.5a32.341,32.341,0,0,0-26.695,4.415c-13.175,8.954-24.124,20.328-27.863,28.025-6.667,13.728-.168,30.445,7.054,40.758s16.642,25.553,18.68,32.15,1.706,9.931,1.706,9.931,12.979-.223,28.953-13.615A71.941,71.941,0,0,0,333.7,208.3Z" transform="translate(38.921 0.408)" fill="#282c3b"/>
    <path id="Path_79" data-name="Path 79" d="M260.235,170.228s9.92-18.536,23.448-25.943,21.84-11.458,30.427-4.716,18.767,10.955,26.943,30.283,3.857,45.823,5.378,52.536-32.084,21.381-32.084,21.381,3.608-17.648-7.9-37.306S260.235,170.228,260.235,170.228Z" transform="translate(52.088)" fill="#282c3b"/>
    <path id="Path_80" data-name="Path 80" d="M272.417,183c1.483,7.413-1.978,23.225-1.978,23.225s31.682-4.476,41.07-6.45c0,0-13.811-25.712-14.907-36.126Z" transform="translate(71.386 52.024)" fill="#ffc7cc"/>
    <path id="Path_81" data-name="Path 81" d="M272.417,183c1.483,7.413-1.978,23.225-1.978,23.225s31.682-4.476,41.07-6.45c0,0-13.811-25.712-14.907-36.126Z" transform="translate(71.386 52.024)" fill="url(#linear-gradient-6)" style="mix-blend-mode: multiply;isolation: isolate"/>
    <path id="Path_82" data-name="Path 82" d="M303.915,180.5l11.86-6.919s14.332,4.45,26.686,6.919,15.789,3.345,15.789,3.345-13.32,52.5-50.877,52.99-44.967-48.428-44.967-48.428l24.214-8.9Z" transform="translate(56.194 70.823)" fill="#ffc7cc"/>
    <path id="Path_83" data-name="Path 83" d="M294.375,178.559s-18.3,3.837-26.07,25.2c-5.655,15.552-16.434,61.132-23.092,89.674a236.1,236.1,0,0,0,15.558,40.142c.353-.171.708-.3,1.058-.512,11.29-6.8,22.7-77.786,25.717-82.5s21.337-39.85,21.337-39.85Z" transform="translate(23.678 80.23)" fill="#ffc7cc"/>
    <path id="Path_84" data-name="Path 84" d="M281.021,313.043s13.991-10.255,8.032-34.307c-4.525-18.264-32.168-61.184-37.225-87.7l-16.9-1.908s10.541,51.877,14.881,78.537S264.075,318.86,281.021,313.043Z" transform="translate(4.234 100.224)" fill="#ffc7cc"/>
    <rect id="Rectangle_104" data-name="Rectangle 104" width="29.607" height="58.065" rx="1.413" transform="translate(235.66 234.743) rotate(-4.935)" fill="#30567a"/>
    <path id="Path_85" data-name="Path 85" d="M238.506,178.524l11.367-.723.62,3.1-9.921,1.344Z" transform="translate(10.994 78.795)" fill="#ffc7cc"/>
    <path id="Path_86" data-name="Path 86" d="M239.221,180.855l11.677-.517-.93,4.753-10.747,1.24Z" transform="translate(12.346 83.594)" fill="#ffc7cc"/>
    <path id="Path_87" data-name="Path 87" d="M239.221,183.412h8.991v3.514l-8.991,2.067Z" transform="translate(12.346 89.408)" fill="#ffc7cc"/>
    <path id="Path_88" data-name="Path 88" d="M248.881,202.025l-4.753-1.24,7.439-1.654v-5.58l-8.474,1.24,8.474-4.134v-5.476l-7.954,2.423,7.954-5.834-2.067-3.718s-8.474,2.478-10.333,5.074a80.437,80.437,0,0,1-5.58,6.5s-2.481,17.362.827,24.182,7.13,8.121,7.13,8.121l4.652-5.436,1.859-8.888,8.578-3.513V201.4Z" transform="translate(0 79.269)" fill="#ffc7cc"/>
    <path id="Path_89" data-name="Path 89" d="M318.552,186.3c16.069,25.848,22.841,65.637,25.339,87.908,3.336,29.7,12.346,41.428,12.843,84.5.364,31.526,7.653,46.488,7.653,46.488l-22.806,1.243c1.258,3.423-8.8-36.993-13.791-60.074-10.067-46.581-10.651-46.991-18.527-76.959-7.292-27.747-9.246-33.159-16.4-48.68s10.949-43.588,10.949-43.588S315.687,181.689,318.552,186.3Z" transform="translate(110.631 77.537)" fill="#ffc7cc"/>
    <path id="Path_90" data-name="Path 90" d="M332.881,275.849c-.584-.792-8.243-25.041-8.315-28.759-7.422.3-7.451,21.543-14.875,21.846-.948,7.02-1.576,10.061-1.093,14.878.564,5.644.607,8.917,1.1,13.317s3.42,7.679,5.9,6.89,2.709-.225,4.854,0,2.822-.564,4.137-1.24,1.957.677,4.441,0,2.033-1.807,3.053-1.807,2.139.338,4.852-2.07,2.18-8.3.48-9.741S334.214,277.656,332.881,275.849Z" transform="translate(143.238 209.837)" fill="#ffc7cc"/>
    <g id="Group_16" data-name="Group 16" transform="translate(299.295 545.535)">
      <path id="Path_91" data-name="Path 91" d="M318.975,435.676c-9.842-44.152-16.153-67.637-16.153-67.637,5.274-18.836,10.03-90.3,10.03-90.3l-57.122,2.521c3.767,44.08,6.89,78.682,10.171,99.461,2.868,18.16,40.622,98.03,43.848,133.2.532,5.791-3.753,13.548-3.753,13.548l-2.015,12.84s24.743-12.132,29.6-19.947,4.536-18.677-.995-28.557S328.568,478.712,318.975,435.676Z" transform="translate(-255.729 -277.737)" fill="#ffc7cc"/>
      <path id="Path_92" data-name="Path 92" d="M268.8,278.409l-13.068.578q.967,11.354,1.885,21.823Q263.144,289.578,268.8,278.409Z" transform="translate(-255.729 -276.466)" fill="url(#linear-gradient-7)" style="mix-blend-mode: multiply;isolation: isolate"/>
      <path id="Path_93" data-name="Path 93" d="M295.425,351.6q-3.721-16.7-6.725-29.4-10.374,22.122-20.519,44.357c8.723,23.384,16.619,47.037,18.018,62.292.532,5.791-3.753,13.548-3.753,13.548l-2.015,12.84s24.743-12.132,29.6-19.947,4.536-18.677-.995-28.557S305.018,394.632,295.425,351.6Z" transform="translate(-232.18 -193.657)" fill="url(#linear-gradient-8)" style="mix-blend-mode: multiply;isolation: isolate"/>
      <path id="Path_94" data-name="Path 94" d="M283.766,387.1a30.51,30.51,0,0,0,21.126-9.995c10.33-11.23,5.462-25.668,5.462-25.668a62.148,62.148,0,0,1,8.633,11.874c2.671,5.207,2.695,10.2,4.782,14.271,4.473,8.714,5.5,10.726,5.5,10.726l-6.034,3.1-7.876-12.051s-7.74,18.073-15.7,24.116c-5.109,3.877-31.723,17.157-31.723,17.157s-2.752-5.363,5.222-16.231S283.766,387.1,283.766,387.1Z" transform="translate(-233.499 -138.361)" fill="#264653"/>
    </g>
    <path id="Path_95" data-name="Path 95" d="M336.017,273.006l-59.9,11.678c-2.247,40.44,4.7,104.006,7.913,124.325,3.391,21.476,5.649,106.241,5.649,106.241s.379,9.42-2.637,17.709-12.808,19.588-12.808,19.588l13.563,9.044c17.33-4.522,26.371-30.893,26.371-30.893s-3.018-2.981-1.281-20.247c2.056-20.418,8.957-48.174,9.57-72.055,1.13-44.08.755-63.671.755-63.671C326.222,337.052,336.017,273.006,336.017,273.006Z" transform="translate(78.559 258.85)" fill="#ffc7cc"/>
    <path id="Path_96" data-name="Path 96" d="M293.872,179.294s1.425,7.838,16.393,11.4,33.856-15.324,33.856-15.324l26.5,5.346s-6.771,10.692-7.483,19.958a112.285,112.285,0,0,0,.711,19.955s-3.319,46.575.957,78.65,12.9,44.14,17.177,89.047S367.664,500.6,367.664,500.6a372.618,372.618,0,0,1-51.932,8.185c-27.085,2.14-56.31-5.456-56.31-5.456s-9.3-59.241-1.767-106.712c5.863-36.947,20.533-61.936,17.683-84.033s-1.425-59.874-4.276-67.715-1.229-14.922.908-24.188c0,0-7.309-27.869-4.143-33.53C267.827,187.15,274.628,184.282,293.872,179.294Z" transform="translate(41.639 74.206)" fill="#264653"/>
    <path id="Path_97" data-name="Path 97" d="M293.454,381.726a30.5,30.5,0,0,0,23.358.752c14.314-5.274,16.575-20.343,16.575-20.343a62.109,62.109,0,0,1,2.261,14.5c0,5.855-2.261,10.307-2.261,14.884v12.053h-6.78L325.1,389.26S309,401.294,302.683,403.2c-9.246,2.787-38.615,1.13-38.615,1.13s0-6.028,12.057-12.056S293.454,381.726,293.454,381.726Z" transform="translate(59.337 427.413)" fill="#264653"/>
    <path id="Path_98" data-name="Path 98" d="M268.405,147.625c12.739,2.215,29.979,20.9,39.9,25.174s9.547-4.606,16.87-4.635,7.572,9.434,3.085,17.223a61.9,61.9,0,0,1-5.219,7.939c-5.548,7.644-2.067,16.243-19.036,25.24-9.122,4.84-22.922-.512-31.676-14.005s-14.6-53.707-14.6-53.707S258.231,145.856,268.405,147.625Z" transform="translate(47.358 21.01)" fill="#ffc7cc"/>
  </g>
</svg>
